<?xml version="1.0" encoding="UTF-8"?>
<!DOCTYPE svg PUBLIC "-//W3C//DTD SVG 1.1//EN" "http://www.w3.org/Graphics/SVG/1.1/DTD/svg11.dtd">
<svg xmlns="http://www.w3.org/2000/svg" version="1.1" width="722px" height="777px" style="shape-rendering:geometricPrecision; text-rendering:geometricPrecision; image-rendering:optimizeQuality; fill-rule:evenodd; clip-rule:evenodd" xmlns:xlink="http://www.w3.org/1999/xlink">
<g><path style="opacity:0.937" fill="#fcfcfc" d="M 351.5,4.5 C 363.189,3.48268 374.522,4.98268 385.5,9C 487.43,57.6524 589.43,106.319 691.5,155C 708.519,166.187 718.019,182.02 720,202.5C 720.667,328.5 720.667,454.5 720,580.5C 716.451,602.443 705.284,619.277 686.5,631C 587.407,677.547 488.073,723.547 388.5,769C 372.464,776.836 356.131,777.502 339.5,771C 235.226,718.361 130.893,666.695 26.5,616C 12.5051,604.511 5.00508,589.677 4,571.5C 3.33333,447.167 3.33333,322.833 4,198.5C 6.61445,174.895 18.7811,158.395 40.5,149C 134.531,105.317 228.531,61.6502 322.5,18C 331.296,11.465 340.963,6.96497 351.5,4.5 Z"/></g>
<g><path style="opacity:1" fill="#334f56" d="M 397.5,63.5 C 397.167,63.5 396.833,63.5 396.5,63.5C 374.07,73.4716 351.57,83.1383 329,92.5C 325.948,91.2887 322.781,90.4553 319.5,90C 311.347,85.579 303.347,81.079 295.5,76.5C 317.064,66.1384 338.897,56.1384 361,46.5C 373.287,52.0621 385.453,57.7287 397.5,63.5 Z"/></g>
<g><path style="opacity:1" fill="#0d1d27" d="M 396.5,63.5 C 396.822,66.3063 397.822,68.8063 399.5,71C 400.744,71.4561 401.577,70.9561 402,69.5C 403.333,70.8333 404.667,72.1667 406,73.5C 408.405,72.7552 410.572,73.4219 412.5,75.5C 410.376,76.458 408.376,77.6246 406.5,79C 405.663,80.0113 405.33,81.1779 405.5,82.5C 408.206,82.5751 410.873,82.9084 413.5,83.5C 413.666,87.8461 413.499,92.1794 413,96.5C 408.107,96.0512 403.44,94.7179 399,92.5C 388.923,96.1412 379.089,100.308 369.5,105C 367.109,106.309 367.109,107.309 369.5,108C 368.5,108.5 367.5,109 366.5,109.5C 365.005,108.295 363.672,108.295 362.5,109.5C 361.833,109.167 361.167,108.833 360.5,108.5C 348.967,102.821 337.134,97.8214 325,93.5C 308.598,100.466 292.098,107.133 275.5,113.5C 266.131,108.494 256.798,103.494 247.5,98.5C 263.41,90.9741 279.41,83.6408 295.5,76.5C 303.347,81.079 311.347,85.579 319.5,90C 322.781,90.4553 325.948,91.2887 329,92.5C 351.57,83.1383 374.07,73.4716 396.5,63.5 Z"/></g>
<g><path style="opacity:1" fill="#0b1720" d="M 396.5,63.5 C 396.833,63.5 397.167,63.5 397.5,63.5C 457.353,91.2619 517.02,119.262 576.5,147.5C 576.44,148.043 576.107,148.376 575.5,148.5C 572.223,147.746 568.89,147.246 565.5,147C 564.223,145.214 562.556,144.048 560.5,143.5C 558.104,144.722 555.604,145.722 553,146.5C 549.731,145.425 546.731,145.425 544,146.5C 542.699,145.902 541.865,144.902 541.5,143.5C 544.086,142.52 546.753,142.187 549.5,142.5C 549.579,141.07 549.246,139.736 548.5,138.5C 546.833,137.5 545.5,136.167 544.5,134.5C 542.833,135.5 541.167,136.5 539.5,137.5C 538.167,137.167 536.833,136.833 535.5,136.5C 529.837,139.582 524.003,142.249 518,144.5C 516.902,143.616 516.402,142.616 516.5,141.5C 511.911,144.276 509.245,143.276 508.5,138.5C 505.539,139.183 505.205,140.016 507.5,141C 506.906,141.464 506.239,141.631 505.5,141.5C 488.89,134.533 472.223,127.533 455.5,120.5C 444.041,125.375 432.708,130.375 421.5,135.5C 401.491,127.663 381.824,118.997 362.5,109.5C 363.672,108.295 365.005,108.295 366.5,109.5C 367.5,109 368.5,108.5 369.5,108C 367.109,107.309 367.109,106.309 369.5,105C 379.089,100.308 388.923,96.1412 399,92.5C 403.44,94.7179 408.107,96.0512 413,96.5C 413.499,92.1794 413.666,87.8461 413.5,83.5C 410.873,82.9084 408.206,82.5751 405.5,82.5C 405.33,81.1779 405.663,80.0113 406.5,79C 408.376,77.6246 410.376,76.458 412.5,75.5C 410.572,73.4219 408.405,72.7552 406,73.5C 404.667,72.1667 403.333,70.8333 402,69.5C 401.577,70.9561 400.744,71.4561 399.5,71C 397.822,68.8063 396.822,66.3063 396.5,63.5 Z"/></g>
<g><path style="opacity:1" fill="#314e55" d="M 247.5,98.5 C 256.798,103.494 266.131,108.494 275.5,113.5C 267.833,117.5 260.167,121.5 252.5,125.5C 241.563,121.429 231.23,116.429 221.5,110.5C 230.162,106.502 238.829,102.502 247.5,98.5 Z"/></g>
<g><path style="opacity:1" fill="#9abcc2" d="M 360.5,108.5 C 350.167,113.833 339.833,119.167 329.5,124.5C 315.189,129.932 301.189,135.932 287.5,142.5C 287.167,142.5 286.833,142.5 286.5,142.5C 275.03,137.224 263.697,131.558 252.5,125.5C 260.167,121.5 267.833,117.5 275.5,113.5C 292.098,107.133 308.598,100.466 325,93.5C 337.134,97.8214 348.967,102.821 360.5,108.5 Z"/></g>
<g><path style="opacity:1" fill="#e6f7f8" d="M 221.5,110.5 C 231.23,116.429 241.563,121.429 252.5,125.5C 263.697,131.558 275.03,137.224 286.5,142.5C 284.262,143.537 281.929,143.703 279.5,143C 268.888,138.361 258.554,133.194 248.5,127.5C 239.184,132.936 229.517,137.603 219.5,141.5C 218.127,141.657 216.793,141.49 215.5,141C 206.151,136.074 196.651,131.574 187,127.5C 173.415,133.377 159.915,139.377 146.5,145.5C 146.586,144.504 146.252,143.671 145.5,143C 147.856,140.629 150.523,139.796 153.5,140.5C 158.292,139.154 162.292,136.654 165.5,133C 171.632,133.018 176.632,130.684 180.5,126C 182.762,125.358 184.929,124.525 187,123.5C 188.726,124.576 190.559,124.743 192.5,124C 201.808,118.74 211.475,114.24 221.5,110.5 Z"/></g>
<g><path style="opacity:1" fill="#4c6b72" d="M 360.5,108.5 C 361.167,108.833 361.833,109.167 362.5,109.5C 381.824,118.997 401.491,127.663 421.5,135.5C 411.251,141.208 400.751,146.542 390,151.5C 388.862,151.011 387.695,150.678 386.5,150.5C 376.978,146.242 367.311,142.242 357.5,138.5C 350.818,135.361 343.985,132.361 337,129.5C 334.447,127.732 331.947,126.066 329.5,124.5C 339.833,119.167 350.167,113.833 360.5,108.5 Z"/></g>
<g><path style="opacity:1" fill="#243c45" d="M 329.5,124.5 C 331.947,126.066 334.447,127.732 337,129.5C 343.985,132.361 350.818,135.361 357.5,138.5C 346.052,144.053 334.385,149.386 322.5,154.5C 320.833,155.833 319.167,155.833 317.5,154.5C 307.469,150.481 297.469,146.481 287.5,142.5C 301.189,135.932 315.189,129.932 329.5,124.5 Z"/></g>
<g><path style="opacity:1" fill="#03070f" d="M 286.5,142.5 C 286.833,142.5 287.167,142.5 287.5,142.5C 297.469,146.481 307.469,150.481 317.5,154.5C 317.631,155.376 317.298,156.043 316.5,156.5C 305.2,161.473 294.2,166.807 283.5,172.5C 282.127,172.657 280.793,172.49 279.5,172C 270.052,166.941 260.385,162.441 250.5,158.5C 241.983,151.206 232.15,146.206 221,143.5C 219.989,143.892 219.489,144.559 219.5,145.5C 218.081,144.995 217.415,143.995 217.5,142.5C 218.492,142.672 219.158,142.338 219.5,141.5C 229.517,137.603 239.184,132.936 248.5,127.5C 258.554,133.194 268.888,138.361 279.5,143C 281.929,143.703 284.262,143.537 286.5,142.5 Z"/></g>
<g><path style="opacity:1" fill="#08131d" d="M 357.5,138.5 C 367.311,142.242 376.978,146.242 386.5,150.5C 386.611,151.117 386.944,151.617 387.5,152C 376.029,156.57 364.696,161.404 353.5,166.5C 351.143,166.663 348.81,166.497 346.5,166C 338.78,161.304 330.78,157.471 322.5,154.5C 334.385,149.386 346.052,144.053 357.5,138.5 Z"/></g>
<g><path style="opacity:1" fill="#09141d" d="M 217.5,142.5 C 217.415,143.995 218.081,144.995 219.5,145.5C 219.489,144.559 219.989,143.892 221,143.5C 232.15,146.206 241.983,151.206 250.5,158.5C 239.448,163.359 228.781,168.693 218.5,174.5C 206.701,169.562 195.035,164.229 183.5,158.5C 194.851,153.157 206.184,147.824 217.5,142.5 Z"/></g>
<g><path style="opacity:1" fill="#0e1d27" d="M 576.5,147.5 C 608.92,162.974 641.253,178.641 673.5,194.5C 673.158,195.338 672.492,195.672 671.5,195.5C 659.111,189.417 646.611,183.417 634,177.5C 624.775,181.196 615.942,185.53 607.5,190.5C 607.631,189.624 607.298,188.957 606.5,188.5C 600.808,186.254 595.475,183.421 590.5,180C 586.12,178.657 581.786,177.49 577.5,176.5C 577.631,175.624 577.298,174.957 576.5,174.5C 570.761,171.63 565.094,168.797 559.5,166C 555.135,163.655 550.468,162.155 545.5,161.5C 544.358,159.567 542.692,158.067 540.5,157C 535.33,155.053 530.33,152.72 525.5,150C 522.607,148.851 519.607,148.351 516.5,148.5C 513.077,145.945 509.41,143.612 505.5,141.5C 506.239,141.631 506.906,141.464 507.5,141C 505.205,140.016 505.539,139.183 508.5,138.5C 509.245,143.276 511.911,144.276 516.5,141.5C 516.402,142.616 516.902,143.616 518,144.5C 524.003,142.249 529.837,139.582 535.5,136.5C 536.833,136.833 538.167,137.167 539.5,137.5C 541.167,136.5 542.833,135.5 544.5,134.5C 545.5,136.167 546.833,137.5 548.5,138.5C 549.246,139.736 549.579,141.07 549.5,142.5C 546.753,142.187 544.086,142.52 541.5,143.5C 541.865,144.902 542.699,145.902 544,146.5C 546.731,145.425 549.731,145.425 553,146.5C 555.604,145.722 558.104,144.722 560.5,143.5C 562.556,144.048 564.223,145.214 565.5,147C 568.89,147.246 572.223,147.746 575.5,148.5C 576.107,148.376 576.44,148.043 576.5,147.5 Z"/></g>
<g><path style="opacity:1" fill="#050f19" d="M 516.5,148.5 C 519.607,148.351 522.607,148.851 525.5,150C 530.33,152.72 535.33,155.053 540.5,157C 542.692,158.067 544.358,159.567 545.5,161.5C 535.821,165.046 526.821,169.712 518.5,175.5C 518.167,175.5 517.833,175.5 517.5,175.5C 508.463,170.315 499.13,165.648 489.5,161.5C 498.125,156.354 507.125,152.02 516.5,148.5 Z"/></g>
<g><path style="opacity:1" fill="#95b7bd" d="M 118.5,158.5 C 118.414,159.496 118.748,160.329 119.5,161C 129.156,164.495 138.156,168.995 146.5,174.5C 135.411,179.307 124.411,184.307 113.5,189.5C 126.322,195.049 138.989,200.883 151.5,207C 150.552,207.483 149.552,207.649 148.5,207.5C 136.405,202.621 124.405,197.454 112.5,192C 110.866,191.506 109.199,191.34 107.5,191.5C 109.158,190.819 110.825,189.985 112.5,189C 111.101,188.405 109.768,188.572 108.5,189.5C 100.803,185.983 93.1361,182.483 85.5,179C 83.9069,178.051 82.5736,176.885 81.5,175.5C 93.7488,169.64 106.082,163.973 118.5,158.5 Z"/></g>
<g><path style="opacity:1" fill="#80a3a8" d="M 219.5,141.5 C 219.158,142.338 218.492,142.672 217.5,142.5C 206.184,147.824 194.851,153.157 183.5,158.5C 195.035,164.229 206.701,169.562 218.5,174.5C 228.289,178.894 237.955,183.561 247.5,188.5C 236.933,193.748 226.267,199.081 215.5,204.5C 214.833,204.5 214.167,204.5 213.5,204.5C 203.982,199.909 194.315,195.576 184.5,191.5C 172.394,184.785 159.728,179.118 146.5,174.5C 138.156,168.995 129.156,164.495 119.5,161C 118.748,160.329 118.414,159.496 118.5,158.5C 127.974,154.56 137.307,150.226 146.5,145.5C 159.915,139.377 173.415,133.377 187,127.5C 196.651,131.574 206.151,136.074 215.5,141C 216.793,141.49 218.127,141.657 219.5,141.5 Z"/></g>
<g><path style="opacity:1" fill="#1f343d" d="M 317.5,154.5 C 319.167,155.833 320.833,155.833 322.5,154.5C 330.78,157.471 338.78,161.304 346.5,166C 348.81,166.497 351.143,166.663 353.5,166.5C 345.888,169.659 338.555,173.493 331.5,178C 327.5,179.333 323.5,180.667 319.5,182C 317.682,185.075 315.015,186.908 311.5,187.5C 302.132,182.816 292.799,178.15 283.5,173.5C 283.5,173.167 283.5,172.833 283.5,172.5C 294.2,166.807 305.2,161.473 316.5,156.5C 317.298,156.043 317.631,155.376 317.5,154.5 Z"/></g>
<g><path style="opacity:1" fill="#334e56" d="M 505.5,141.5 C 509.41,143.612 513.077,145.945 516.5,148.5C 507.125,152.02 498.125,156.354 489.5,161.5C 499.13,165.648 508.463,170.315 517.5,175.5C 508.48,180.201 499.48,184.867 490.5,189.5C 489.508,189.328 488.842,189.662 488.5,190.5C 478.19,194.657 468.19,199.323 458.5,204.5C 448.427,200.63 438.761,195.963 429.5,190.5C 438.465,185.683 447.465,180.849 456.5,176C 447.558,170.696 438.225,166.196 428.5,162.5C 408.396,171.524 388.396,180.524 368.5,189.5C 357.253,194.571 346.253,199.905 335.5,205.5C 326.391,209.554 317.391,213.887 308.5,218.5C 316.91,223.372 325.577,227.705 334.5,231.5C 335.833,232.167 335.833,232.833 334.5,233.5C 324.253,238.791 313.919,243.791 303.5,248.5C 293.73,244.919 284.397,240.586 275.5,235.5C 285.846,229.476 296.513,223.809 307.5,218.5C 298.383,213.125 289.049,208.125 279.5,203.5C 289.93,197.618 300.597,192.285 311.5,187.5C 315.015,186.908 317.682,185.075 319.5,182C 323.5,180.667 327.5,179.333 331.5,178C 338.555,173.493 345.888,169.659 353.5,166.5C 364.696,161.404 376.029,156.57 387.5,152C 386.944,151.617 386.611,151.117 386.5,150.5C 387.695,150.678 388.862,151.011 390,151.5C 400.751,146.542 411.251,141.208 421.5,135.5C 432.708,130.375 444.041,125.375 455.5,120.5C 472.223,127.533 488.89,134.533 505.5,141.5 Z"/></g>
<g><path style="opacity:1" fill="#28414a" d="M 545.5,161.5 C 550.468,162.155 555.135,163.655 559.5,166C 565.094,168.797 570.761,171.63 576.5,174.5C 577.298,174.957 577.631,175.624 577.5,176.5C 568.017,179.865 559.35,184.532 551.5,190.5C 550.833,190.5 550.167,190.5 549.5,190.5C 539.782,184.574 529.449,179.574 518.5,175.5C 526.821,169.712 535.821,165.046 545.5,161.5 Z"/></g>
<g><path style="opacity:1" fill="#2c434c" d="M 250.5,158.5 C 260.385,162.441 270.052,166.941 279.5,172C 280.793,172.49 282.127,172.657 283.5,172.5C 283.5,172.833 283.5,173.167 283.5,173.5C 272.206,178.428 260.872,183.428 249.5,188.5C 248.833,188.5 248.167,188.5 247.5,188.5C 237.955,183.561 228.289,178.894 218.5,174.5C 228.781,168.693 239.448,163.359 250.5,158.5 Z"/></g>
<g><path style="opacity:1" fill="#d3f9fb" d="M 81.5,175.5 C 82.5736,176.885 83.9069,178.051 85.5,179C 93.1361,182.483 100.803,185.983 108.5,189.5C 109.768,188.572 111.101,188.405 112.5,189C 110.825,189.985 109.158,190.819 107.5,191.5C 98.1622,195.836 88.8288,200.169 79.5,204.5C 80.2427,205.182 80.9094,205.849 81.5,206.5C 76.7621,204.964 72.4288,202.63 68.5,199.5C 66.2383,198.533 63.905,197.866 61.5,197.5C 61.5,196.5 61.5,195.5 61.5,194.5C 59.1432,194.663 56.8098,194.497 54.5,194C 52.8542,192.445 52.5209,190.779 53.5,189C 62.9733,184.669 72.3066,180.169 81.5,175.5 Z"/></g>
<g><path style="opacity:1" fill="#52727a" d="M 283.5,173.5 C 292.799,178.15 302.132,182.816 311.5,187.5C 300.597,192.285 289.93,197.618 279.5,203.5C 289.049,208.125 298.383,213.125 307.5,218.5C 296.513,223.809 285.846,229.476 275.5,235.5C 275.167,235.5 274.833,235.5 274.5,235.5C 264.927,230.377 255.26,225.21 245.5,220C 256.378,214.394 267.378,209.061 278.5,204C 268.454,199.314 258.787,194.147 249.5,188.5C 260.872,183.428 272.206,178.428 283.5,173.5 Z"/></g>
<g><path style="opacity:1" fill="#08111c" d="M 577.5,176.5 C 581.786,177.49 586.12,178.657 590.5,180C 595.475,183.421 600.808,186.254 606.5,188.5C 607.298,188.957 607.631,189.624 607.5,190.5C 598.14,194.881 588.807,199.215 579.5,203.5C 570.026,199.56 560.693,195.226 551.5,190.5C 559.35,184.532 568.017,179.865 577.5,176.5 Z"/></g>
<g><path style="opacity:1" fill="#a8cad0" d="M 517.5,175.5 C 517.833,175.5 518.167,175.5 518.5,175.5C 529.449,179.574 539.782,184.574 549.5,190.5C 539.367,194.401 529.7,199.068 520.5,204.5C 510.263,200.048 500.263,195.048 490.5,189.5C 499.48,184.867 508.48,180.201 517.5,175.5 Z"/></g>
<g><path style="opacity:1" fill="#284149" d="M 671.5,195.5 C 652.837,203.833 634.17,212.166 615.5,220.5C 604.889,218.019 595.223,213.519 586.5,207C 584.564,206.187 582.564,205.687 580.5,205.5C 580.167,204.833 579.833,204.167 579.5,203.5C 588.807,199.215 598.14,194.881 607.5,190.5C 615.942,185.53 624.775,181.196 634,177.5C 646.611,183.417 659.111,189.417 671.5,195.5 Z"/></g>
<g><path style="opacity:1" fill="#253f48" d="M 146.5,174.5 C 159.728,179.118 172.394,184.785 184.5,191.5C 174.196,197.276 163.529,202.443 152.5,207C 153.416,207.278 154.082,207.778 154.5,208.5C 153.167,208.833 151.833,209.167 150.5,209.5C 149.833,208.833 149.167,208.167 148.5,207.5C 149.552,207.649 150.552,207.483 151.5,207C 138.989,200.883 126.322,195.049 113.5,189.5C 124.411,184.307 135.411,179.307 146.5,174.5 Z"/></g>
<g><path style="opacity:1" fill="#0b1922" d="M 458.5,204.5 C 458.5,204.833 458.5,205.167 458.5,205.5C 455.053,205.814 451.72,206.648 448.5,208C 441.712,212.061 434.712,215.561 427.5,218.5C 426.833,218.167 426.167,217.833 425.5,217.5C 415.505,213.168 405.505,208.835 395.5,204.5C 387.086,198.572 378.086,193.572 368.5,189.5C 388.396,180.524 408.396,171.524 428.5,162.5C 438.225,166.196 447.558,170.696 456.5,176C 447.465,180.849 438.465,185.683 429.5,190.5C 438.761,195.963 448.427,200.63 458.5,204.5 Z"/></g>
<g><path style="opacity:1" fill="#a7c8cf" d="M 247.5,188.5 C 248.167,188.5 248.833,188.5 249.5,188.5C 258.787,194.147 268.454,199.314 278.5,204C 267.378,209.061 256.378,214.394 245.5,220C 255.26,225.21 264.927,230.377 274.5,235.5C 264.526,240.153 254.526,244.819 244.5,249.5C 244.167,249.5 243.833,249.5 243.5,249.5C 235.228,246.372 226.894,243.205 218.5,240C 216.416,239.303 214.749,238.136 213.5,236.5C 223.709,231.058 234.042,225.558 244.5,220C 235.258,215.212 225.924,210.712 216.5,206.5C 215.702,206.043 215.369,205.376 215.5,204.5C 226.267,199.081 236.933,193.748 247.5,188.5 Z"/></g>
<g><path style="opacity:1" fill="#80a2a9" d="M 549.5,190.5 C 550.167,190.5 550.833,190.5 551.5,190.5C 560.693,195.226 570.026,199.56 579.5,203.5C 579.833,204.167 580.167,204.833 580.5,205.5C 579.508,205.328 578.842,205.662 578.5,206.5C 568.496,210.836 558.496,215.169 548.5,219.5C 539.167,214.5 529.833,209.5 520.5,204.5C 529.7,199.068 539.367,194.401 549.5,190.5 Z"/></g>
<g><path style="opacity:1" fill="#09161e" d="M 184.5,191.5 C 194.315,195.576 203.982,199.909 213.5,204.5C 214.598,205.397 214.598,206.23 213.5,207C 202.873,211.315 192.54,216.148 182.5,221.5C 173.167,217.167 163.833,212.833 154.5,208.5C 154.082,207.778 153.416,207.278 152.5,207C 163.529,202.443 174.196,197.276 184.5,191.5 Z"/></g>
<g><path style="opacity:1" fill="#1e343d" d="M 368.5,189.5 C 378.086,193.572 387.086,198.572 395.5,204.5C 385.359,208.736 375.693,213.736 366.5,219.5C 357.732,214.731 348.732,210.231 339.5,206C 338.207,205.51 336.873,205.343 335.5,205.5C 346.253,199.905 357.253,194.571 368.5,189.5 Z"/></g>
<g><path style="opacity:1" fill="#2a454d" d="M 107.5,191.5 C 109.199,191.34 110.866,191.506 112.5,192C 124.405,197.454 136.405,202.621 148.5,207.5C 149.167,208.167 149.833,208.833 150.5,209.5C 142.193,213.653 133.86,217.82 125.5,222C 123.26,222.977 120.927,223.477 118.5,223.5C 108.167,218.833 97.8333,214.167 87.5,209.5C 85.5,208.5 83.5,207.5 81.5,206.5C 80.9094,205.849 80.2427,205.182 79.5,204.5C 88.8288,200.169 98.1622,195.836 107.5,191.5 Z"/></g>
<g><path style="opacity:1" fill="#050912" d="M 488.5,190.5 C 507.83,200.166 527.163,209.833 546.5,219.5C 546.611,220.117 546.944,220.617 547.5,221C 538.089,225.219 528.589,229.052 519,232.5C 514.543,231.261 510.043,230.094 505.5,229C 498.951,225.226 492.284,221.726 485.5,218.5C 476.679,213.924 467.679,209.591 458.5,205.5C 458.5,205.167 458.5,204.833 458.5,204.5C 468.19,199.323 478.19,194.657 488.5,190.5 Z"/></g>
<g><path style="opacity:1" fill="#010102" d="M 673.5,194.5 C 674.458,194.953 675.292,195.619 676,196.5C 676.667,326.167 676.667,455.833 676,585.5C 571.89,634.429 467.39,682.596 362.5,730C 359.137,730.927 356.137,730.427 353.5,728.5C 354.625,726.871 355.959,725.371 357.5,724C 356.833,723.667 356.167,723.333 355.5,723C 357.597,694.118 358.43,664.952 358,635.5C 357.654,633.782 357.154,632.115 356.5,630.5C 356.629,621.738 356.629,613.238 356.5,605C 356.862,603.775 357.362,602.609 358,601.5C 358.864,582.973 358.364,564.64 356.5,546.5C 356.5,524.833 356.5,503.167 356.5,481.5C 356.5,470.5 356.5,459.5 356.5,448.5C 356.526,431.694 356.526,414.694 356.5,397.5C 356.5,388.5 356.5,379.5 356.5,370.5C 356.5,359.833 356.5,349.167 356.5,338.5C 357.167,338.5 357.5,338.167 357.5,337.5C 368.155,332.834 378.821,328.168 389.5,323.5C 408.476,315.343 427.142,306.677 445.5,297.5C 491.154,277.842 536.487,257.342 581.5,236C 593.571,232.126 604.904,226.959 615.5,220.5C 634.17,212.166 652.837,203.833 671.5,195.5C 672.492,195.672 673.158,195.338 673.5,194.5 Z"/></g>
<g><path style="opacity:1" fill="#cee2e6" d="M 490.5,189.5 C 500.263,195.048 510.263,200.048 520.5,204.5C 529.833,209.5 539.167,214.5 548.5,219.5C 547.833,219.5 547.167,219.5 546.5,219.5C 527.163,209.833 507.83,200.166 488.5,190.5C 488.842,189.662 489.508,189.328 490.5,189.5 Z"/></g>
<g><path style="opacity:1" fill="#dcf7f9" d="M 395.5,204.5 C 405.505,208.835 415.505,213.168 425.5,217.5C 425.489,219.017 424.823,220.184 423.5,221C 416.335,224.721 409.002,228.054 401.5,231C 400.978,231.561 400.645,232.228 400.5,233C 409.684,238.092 419.018,242.926 428.5,247.5C 435.5,250.833 442.5,254.167 449.5,257.5C 449.5,258.167 449.167,258.5 448.5,258.5C 420.92,246.043 393.586,233.043 366.5,219.5C 375.693,213.736 385.359,208.736 395.5,204.5 Z"/></g>
<g><path style="opacity:1" fill="#2a424b" d="M 458.5,205.5 C 467.679,209.591 476.679,213.924 485.5,218.5C 482.839,221.301 479.672,223.635 476,225.5C 470,228.051 464.167,230.717 458.5,233.5C 457.833,233.167 457.167,232.833 456.5,232.5C 446.642,228.07 436.975,223.403 427.5,218.5C 434.712,215.561 441.712,212.061 448.5,208C 451.72,206.648 455.053,205.814 458.5,205.5 Z"/></g>
<g><path style="opacity:1" fill="#040911" d="M 73.5,207.5 C 77.755,209.363 82.0883,211.03 86.5,212.5C 99.7991,219.15 113.132,225.816 126.5,232.5C 125.853,244.265 125.186,255.932 124.5,267.5C 117.621,263.894 110.621,260.561 103.5,257.5C 93.6198,252.647 83.6198,247.981 73.5,243.5C 72.1801,231.402 72.1801,219.402 73.5,207.5 Z"/></g>
<g><path style="opacity:1" fill="#799aa1" d="M 73.5,207.5 C 72.1801,219.402 72.1801,231.402 73.5,243.5C 72.8333,243.833 72.1667,244.167 71.5,244.5C 70.9222,243.453 70.2555,243.62 69.5,245C 70.418,253.808 70.7513,262.975 70.5,272.5C 68.8008,272.66 67.1341,272.494 65.5,272C 59.3397,269.297 53.3397,266.464 47.5,263.5C 47.6666,245.83 47.4999,228.164 47,210.5C 46.5,239.831 46.3334,269.165 46.5,298.5C 46.5,309.167 46.5,319.833 46.5,330.5C 46.5,367.5 46.5,404.5 46.5,441.5C 46.5,486.5 46.5,531.5 46.5,576.5C 45.1675,449.333 45.1675,321.999 46.5,194.5C 55.4796,199.159 64.4796,203.492 73.5,207.5 Z"/></g>
<g><path style="opacity:1" fill="#507077" d="M 213.5,204.5 C 214.167,204.5 214.833,204.5 215.5,204.5C 215.369,205.376 215.702,206.043 216.5,206.5C 225.924,210.712 235.258,215.212 244.5,220C 234.042,225.558 223.709,231.058 213.5,236.5C 211.801,236.34 210.134,236.506 208.5,237C 201.926,241.119 194.926,244.453 187.5,247C 185.253,248.277 183.253,249.777 181.5,251.5C 171.537,247.188 161.537,242.854 151.5,238.5C 161.856,232.981 172.189,227.314 182.5,221.5C 192.54,216.148 202.873,211.315 213.5,207C 214.598,206.23 214.598,205.397 213.5,204.5 Z"/></g>
<g><path style="opacity:1" fill="#94b4bb" d="M 154.5,208.5 C 163.833,212.833 173.167,217.167 182.5,221.5C 172.189,227.314 161.856,232.981 151.5,238.5C 140.276,233.717 129.276,228.717 118.5,223.5C 120.927,223.477 123.26,222.977 125.5,222C 133.86,217.82 142.193,213.653 150.5,209.5C 151.833,209.167 153.167,208.833 154.5,208.5 Z"/></g>
<g><path style="opacity:1" fill="#0b1720" d="M 335.5,205.5 C 336.873,205.343 338.207,205.51 339.5,206C 348.732,210.231 357.732,214.731 366.5,219.5C 393.586,233.043 420.92,246.043 448.5,258.5C 451.52,260.677 454.853,262.343 458.5,263.5C 457.192,264.232 455.858,265.066 454.5,266C 457.114,265.468 459.78,265.135 462.5,265C 461.809,266.067 461.309,267.234 461,268.5C 458.568,269.45 456.068,269.45 453.5,268.5C 453.675,271.329 452.342,272.996 449.5,273.5C 450.689,274.429 452.022,274.762 453.5,274.5C 453.5,277.167 453.5,279.833 453.5,282.5C 448.167,282.5 442.833,282.5 437.5,282.5C 437.5,285.167 437.5,287.833 437.5,290.5C 439.527,290.338 441.527,290.505 443.5,291C 439.479,291.803 435.646,292.969 432,294.5C 430.294,293.692 429.461,292.359 429.5,290.5C 427.5,290.5 425.5,290.5 423.5,290.5C 423.336,287.813 423.503,285.146 424,282.5C 424.5,281.333 425.333,280.5 426.5,280C 425.944,279.617 425.611,279.117 425.5,278.5C 414.447,272.641 403.113,267.307 391.5,262.5C 382.258,257.382 372.591,253.049 362.5,249.5C 354.859,252.323 347.526,255.657 340.5,259.5C 337.323,260.447 334.323,261.781 331.5,263.5C 340.228,268.195 348.895,272.862 357.5,277.5C 352.488,281.75 345.488,285.583 336.5,289C 335.448,290.716 336.114,291.716 338.5,292C 336.292,292.191 334.292,292.691 332.5,293.5C 322.132,288.826 311.799,284.159 301.5,279.5C 291.852,273.674 281.852,268.34 271.5,263.5C 263.159,259.368 254.659,255.368 246,251.5C 244.97,251.164 244.47,250.497 244.5,249.5C 254.526,244.819 264.526,240.153 274.5,235.5C 274.833,235.5 275.167,235.5 275.5,235.5C 284.397,240.586 293.73,244.919 303.5,248.5C 313.919,243.791 324.253,238.791 334.5,233.5C 335.833,232.833 335.833,232.167 334.5,231.5C 325.577,227.705 316.91,223.372 308.5,218.5C 317.391,213.887 326.391,209.554 335.5,205.5 Z"/></g>
<g><path style="opacity:1" fill="#0c1b24" d="M 578.5,206.5 C 578.938,206.435 579.272,206.601 579.5,207C 576.833,207.667 576.833,208.333 579.5,209C 577.405,209.556 577.238,210.056 579,210.5C 580.744,208.371 582.911,207.538 585.5,208C 584.167,208.667 582.833,209.333 581.5,210C 582.641,215.75 582.807,221.584 582,227.5C 579.051,226.066 576.218,226.232 573.5,228C 574.167,228.667 574.833,229.333 575.5,230C 572.187,231.968 568.854,233.968 565.5,236C 567.605,237.335 568.271,239.002 567.5,241C 527.167,259.012 486.834,277.178 446.5,295.5C 445.702,295.957 445.369,296.624 445.5,297.5C 427.142,306.677 408.476,315.343 389.5,323.5C 390.706,322.12 390.373,320.953 388.5,320C 379.62,316.059 370.954,311.892 362.5,307.5C 370.24,304.864 377.573,301.364 384.5,297C 387.119,296.849 389.453,296.015 391.5,294.5C 392.812,295.46 394.146,295.294 395.5,294C 395.272,293.601 394.938,293.435 394.5,293.5C 404.846,288.707 415.18,283.707 425.5,278.5C 425.611,279.117 425.944,279.617 426.5,280C 425.333,280.5 424.5,281.333 424,282.5C 423.503,285.146 423.336,287.813 423.5,290.5C 425.5,290.5 427.5,290.5 429.5,290.5C 429.461,292.359 430.294,293.692 432,294.5C 435.646,292.969 439.479,291.803 443.5,291C 441.527,290.505 439.527,290.338 437.5,290.5C 437.5,287.833 437.5,285.167 437.5,282.5C 442.833,282.5 448.167,282.5 453.5,282.5C 453.5,279.833 453.5,277.167 453.5,274.5C 452.022,274.762 450.689,274.429 449.5,273.5C 452.342,272.996 453.675,271.329 453.5,268.5C 456.068,269.45 458.568,269.45 461,268.5C 461.309,267.234 461.809,266.067 462.5,265C 459.78,265.135 457.114,265.468 454.5,266C 455.858,265.066 457.192,264.232 458.5,263.5C 469.083,259.208 479.417,254.375 489.5,249C 488.906,248.536 488.239,248.369 487.5,248.5C 477.928,243.215 468.261,238.215 458.5,233.5C 464.167,230.717 470,228.051 476,225.5C 479.672,223.635 482.839,221.301 485.5,218.5C 492.284,221.726 498.951,225.226 505.5,229C 510.043,230.094 514.543,231.261 519,232.5C 528.589,229.052 538.089,225.219 547.5,221C 546.944,220.617 546.611,220.117 546.5,219.5C 547.167,219.5 547.833,219.5 548.5,219.5C 558.496,215.169 568.496,210.836 578.5,206.5 Z"/></g>
<g><path style="opacity:1" fill="#9abec4" d="M 425.5,217.5 C 426.167,217.833 426.833,218.167 427.5,218.5C 436.975,223.403 446.642,228.07 456.5,232.5C 456.631,233.376 456.298,234.043 455.5,234.5C 446.531,239.153 437.531,243.487 428.5,247.5C 419.018,242.926 409.684,238.092 400.5,233C 400.645,232.228 400.978,231.561 401.5,231C 409.002,228.054 416.335,224.721 423.5,221C 424.823,220.184 425.489,219.017 425.5,217.5 Z"/></g>
<g><path style="opacity:1" fill="#13232b" d="M 578.5,206.5 C 578.842,205.662 579.508,205.328 580.5,205.5C 582.564,205.687 584.564,206.187 586.5,207C 595.223,213.519 604.889,218.019 615.5,220.5C 604.904,226.959 593.571,232.126 581.5,236C 536.487,257.342 491.154,277.842 445.5,297.5C 445.369,296.624 445.702,295.957 446.5,295.5C 486.834,277.178 527.167,259.012 567.5,241C 568.271,239.002 567.605,237.335 565.5,236C 568.854,233.968 572.187,231.968 575.5,230C 574.833,229.333 574.167,228.667 573.5,228C 576.218,226.232 579.051,226.066 582,227.5C 582.807,221.584 582.641,215.75 581.5,210C 582.833,209.333 584.167,208.667 585.5,208C 582.911,207.538 580.744,208.371 579,210.5C 577.238,210.056 577.405,209.556 579.5,209C 576.833,208.333 576.833,207.667 579.5,207C 579.272,206.601 578.938,206.435 578.5,206.5 Z"/></g>
<g><path style="opacity:1" fill="#415f66" d="M 456.5,232.5 C 457.167,232.833 457.833,233.167 458.5,233.5C 468.261,238.215 477.928,243.215 487.5,248.5C 478.769,252.364 470.102,256.531 461.5,261C 457.114,261.315 453.114,260.149 449.5,257.5C 442.5,254.167 435.5,250.833 428.5,247.5C 437.531,243.487 446.531,239.153 455.5,234.5C 456.298,234.043 456.631,233.376 456.5,232.5 Z"/></g>
<g><path style="opacity:1" fill="#86a7ad" d="M 213.5,236.5 C 214.749,238.136 216.416,239.303 218.5,240C 226.894,243.205 235.228,246.372 243.5,249.5C 232.589,255.358 221.589,261.025 210.5,266.5C 200.611,261.723 190.944,256.723 181.5,251.5C 183.253,249.777 185.253,248.277 187.5,247C 194.926,244.453 201.926,241.119 208.5,237C 210.134,236.506 211.801,236.34 213.5,236.5 Z"/></g>
<g><path style="opacity:1" fill="#f7fafa" d="M 73.5,243.5 C 83.6198,247.981 93.6198,252.647 103.5,257.5C 103.5,267.5 103.5,277.5 103.5,287.5C 93.0214,283.896 82.6881,279.896 72.5,275.5C 71.525,265.249 71.1917,254.915 71.5,244.5C 72.1667,244.167 72.8333,243.833 73.5,243.5 Z"/></g>
<g><path style="opacity:1" fill="#060f18" d="M 150.5,243.5 C 154.974,244.908 159.307,246.575 163.5,248.5C 161.069,250.068 161.069,251.568 163.5,253C 168.343,255.336 173.343,257.169 178.5,258.5C 178.168,269.187 178.501,279.854 179.5,290.5C 181.234,292.234 183.234,293.568 185.5,294.5C 183.565,295.213 183.232,296.213 184.5,297.5C 183.167,297.167 181.833,296.833 180.5,296.5C 171.084,291.464 161.418,286.797 151.5,282.5C 151.5,282.167 151.5,281.833 151.5,281.5C 150.911,269.949 150.244,258.449 149.5,247C 150.337,245.989 150.67,244.822 150.5,243.5 Z"/></g>
<g><path style="opacity:1" fill="#304d53" d="M 243.5,249.5 C 243.833,249.5 244.167,249.5 244.5,249.5C 244.47,250.497 244.97,251.164 246,251.5C 254.659,255.368 263.159,259.368 271.5,263.5C 259.915,268.695 248.249,273.695 236.5,278.5C 227.62,275.061 218.953,271.061 210.5,266.5C 221.589,261.025 232.589,255.358 243.5,249.5 Z"/></g>
<g><path style="opacity:1" fill="#d7fafb" d="M 391.5,262.5 C 390.553,264.455 389.219,264.789 387.5,263.5C 385.981,264.851 384.648,266.351 383.5,268C 377.509,269.417 371.676,271.25 366,273.5C 362.648,272.24 359.481,270.573 356.5,268.5C 355.914,268.709 355.414,269.043 355,269.5C 354.333,268.167 353.333,267.167 352,266.5C 350.23,268.418 348.063,268.918 345.5,268C 345.833,267.667 346.167,267.333 346.5,267C 342.102,266.325 340.102,263.825 340.5,259.5C 347.526,255.657 354.859,252.323 362.5,249.5C 372.591,253.049 382.258,257.382 391.5,262.5 Z"/></g>
<g><path style="opacity:1" fill="#a6bbc2" d="M 487.5,248.5 C 488.239,248.369 488.906,248.536 489.5,249C 479.417,254.375 469.083,259.208 458.5,263.5C 454.853,262.343 451.52,260.677 448.5,258.5C 449.167,258.5 449.5,258.167 449.5,257.5C 453.114,260.149 457.114,261.315 461.5,261C 470.102,256.531 478.769,252.364 487.5,248.5 Z"/></g>
<g><path style="opacity:1" fill="#e6f9fb" d="M 340.5,259.5 C 340.102,263.825 342.102,266.325 346.5,267C 346.167,267.333 345.833,267.667 345.5,268C 348.063,268.918 350.23,268.418 352,266.5C 353.333,267.167 354.333,268.167 355,269.5C 355.414,269.043 355.914,268.709 356.5,268.5C 359.481,270.573 362.648,272.24 366,273.5C 371.676,271.25 377.509,269.417 383.5,268C 384.648,266.351 385.981,264.851 387.5,263.5C 389.219,264.789 390.553,264.455 391.5,262.5C 403.113,267.307 414.447,272.641 425.5,278.5C 415.18,283.707 404.846,288.707 394.5,293.5C 393.127,293.657 391.793,293.49 390.5,293C 379.478,287.822 368.478,282.655 357.5,277.5C 348.895,272.862 340.228,268.195 331.5,263.5C 334.323,261.781 337.323,260.447 340.5,259.5 Z"/></g>
<g><path style="opacity:1" fill="#02070e" d="M 163.5,248.5 C 178.021,255.261 192.354,262.261 206.5,269.5C 206.829,282.344 206.495,295.011 205.5,307.5C 198.309,304.403 191.309,301.07 184.5,297.5C 183.232,296.213 183.565,295.213 185.5,294.5C 183.234,293.568 181.234,292.234 179.5,290.5C 178.501,279.854 178.168,269.187 178.5,258.5C 173.343,257.169 168.343,255.336 163.5,253C 161.069,251.568 161.069,250.068 163.5,248.5 Z"/></g>
<g><path style="opacity:1" fill="#1f333d" d="M 612.5,262.5 C 612.5,274.5 612.5,286.5 612.5,298.5C 610.073,298.523 607.74,299.023 605.5,300C 598.854,303.55 592.02,306.716 585,309.5C 584.333,297.5 584.333,285.5 585,273.5C 587.314,272.267 589.481,270.933 591.5,269.5C 598.066,266.966 604.566,264.3 611,261.5C 611.765,261.57 612.265,261.903 612.5,262.5 Z"/></g>
<g><path style="opacity:1" fill="#8bacb1" d="M 271.5,263.5 C 281.852,268.34 291.852,273.674 301.5,279.5C 292.262,283.119 283.262,287.285 274.5,292C 272.527,292.495 270.527,292.662 268.5,292.5C 257.979,287.233 247.312,282.567 236.5,278.5C 248.249,273.695 259.915,268.695 271.5,263.5 Z"/></g>
<g><path style="opacity:1" fill="#1b323c" d="M 151.5,281.5 C 151.5,281.833 151.5,282.167 151.5,282.5C 151.5,285.833 151.5,289.167 151.5,292.5C 150.515,296.634 150.182,300.968 150.5,305.5C 142.546,303.361 134.879,300.361 127.5,296.5C 125.243,287.742 124.91,278.742 126.5,269.5C 131.845,271.448 137.178,273.281 142.5,275C 146.314,276.222 149.314,278.389 151.5,281.5 Z"/></g>
<g><path style="opacity:1" fill="#01040c" d="M 612.5,262.5 C 613.717,270.303 614.383,278.303 614.5,286.5C 614.678,291.959 614.011,297.293 612.5,302.5C 612.179,317.289 612.846,332.123 614.5,347C 614.499,351.015 614.165,354.849 613.5,358.5C 613.824,351.646 613.491,344.979 612.5,338.5C 612.762,337.022 612.429,335.689 611.5,334.5C 602.511,338.28 593.677,342.28 585,346.5C 584.5,357.495 584.333,368.495 584.5,379.5C 583.733,380.172 583.066,381.005 582.5,382C 578.977,383.224 575.644,384.724 572.5,386.5C 573.265,383.904 573.599,381.237 573.5,378.5C 574.873,378.343 576.207,378.51 577.5,379C 574.77,380.232 574.937,381.065 578,381.5C 580.537,381.3 582.204,379.967 583,377.5C 581.464,367.544 581.131,356.211 582,343.5C 581.586,343.043 581.086,342.709 580.5,342.5C 576.666,345.827 573.832,349.827 572,354.5C 567.922,353.922 563.089,353.922 557.5,354.5C 557.543,358.893 557.043,359.226 556,355.5C 552.944,357.392 549.778,359.059 546.5,360.5C 548.572,358.274 551.072,356.607 554,355.5C 554.5,346.84 554.666,338.173 554.5,329.5C 554.829,315.323 554.496,301.323 553.5,287.5C 552.167,288.167 550.833,288.833 549.5,289.5C 547.966,287.658 548.3,286.325 550.5,285.5C 553.38,286.513 556.38,286.346 559.5,285C 566.043,280.46 573.043,276.96 580.5,274.5C 583.227,270.296 586.893,268.629 591.5,269.5C 589.481,270.933 587.314,272.267 585,273.5C 584.333,285.5 584.333,297.5 585,309.5C 592.02,306.716 598.854,303.55 605.5,300C 607.74,299.023 610.073,298.523 612.5,298.5C 612.5,286.5 612.5,274.5 612.5,262.5 Z"/></g>
<g><path style="opacity:1" fill="#779ca4" d="M 71.5,244.5 C 71.1917,254.915 71.525,265.249 72.5,275.5C 72.7721,286.358 72.4388,297.358 71.5,308.5C 62.8386,306.003 54.5052,302.67 46.5,298.5C 46.3334,269.165 46.5,239.831 47,210.5C 47.4999,228.164 47.6666,245.83 47.5,263.5C 53.3397,266.464 59.3397,269.297 65.5,272C 67.1341,272.494 68.8008,272.66 70.5,272.5C 70.7513,262.975 70.418,253.808 69.5,245C 70.2555,243.62 70.9222,243.453 71.5,244.5 Z"/></g>
<g><path style="opacity:1" fill="#84a6ae" d="M 103.5,257.5 C 110.621,260.561 117.621,263.894 124.5,267.5C 124.5,276.833 124.5,286.167 124.5,295.5C 117.576,293.969 110.909,291.636 104.5,288.5C 104.5,287.833 104.167,287.5 103.5,287.5C 103.5,277.5 103.5,267.5 103.5,257.5 Z"/></g>
<g><path style="opacity:1" fill="#0e1c25" d="M 206.5,269.5 C 215.693,274.226 225.026,278.56 234.5,282.5C 236.416,294.987 237.082,307.654 236.5,320.5C 235.039,319.314 233.705,319.314 232.5,320.5C 223.069,316.951 214.069,312.617 205.5,307.5C 206.495,295.011 206.829,282.344 206.5,269.5 Z"/></g>
<g><path style="opacity:1" fill="#060e17" d="M 357.5,277.5 C 368.478,282.655 379.478,287.822 390.5,293C 391.793,293.49 393.127,293.657 394.5,293.5C 394.938,293.435 395.272,293.601 395.5,294C 394.146,295.294 392.812,295.46 391.5,294.5C 389.453,296.015 387.119,296.849 384.5,297C 377.573,301.364 370.24,304.864 362.5,307.5C 361.833,307.167 361.167,306.833 360.5,306.5C 351.162,302.166 341.828,297.832 332.5,293.5C 334.292,292.691 336.292,292.191 338.5,292C 336.114,291.716 335.448,290.716 336.5,289C 345.488,285.583 352.488,281.75 357.5,277.5 Z"/></g>
<g><path style="opacity:1" fill="#dffbfc" d="M 301.5,279.5 C 311.799,284.159 322.132,288.826 332.5,293.5C 341.828,297.832 351.162,302.166 360.5,306.5C 360.063,308.074 359.063,309.241 357.5,310C 349.019,314.09 340.686,318.257 332.5,322.5C 322.336,317.252 312.003,312.252 301.5,307.5C 299.516,306.294 297.516,306.294 295.5,307.5C 288.738,303.676 282.571,299.009 277,293.5C 274.376,293.47 271.709,293.803 269,294.5C 268.536,293.906 268.369,293.239 268.5,292.5C 270.527,292.662 272.527,292.495 274.5,292C 283.262,287.285 292.262,283.119 301.5,279.5 Z"/></g>
<g><path style="opacity:1" fill="#273f48" d="M 234.5,282.5 C 244.5,287.167 254.5,291.833 264.5,296.5C 264.667,308.505 264.5,320.505 264,332.5C 254.891,328.362 245.724,324.362 236.5,320.5C 237.082,307.654 236.416,294.987 234.5,282.5 Z"/></g>
<g><path style="opacity:1" fill="#62848a" d="M 72.5,275.5 C 82.6881,279.896 93.0214,283.896 103.5,287.5C 104.167,287.5 104.5,287.833 104.5,288.5C 102.842,298.961 101.842,309.628 101.5,320.5C 91.8114,316.494 82.1447,312.494 72.5,308.5C 72.1667,308.5 71.8333,308.5 71.5,308.5C 72.4388,297.358 72.7721,286.358 72.5,275.5 Z"/></g>
<g><path style="opacity:1" fill="#a3b7bf" d="M 553.5,287.5 C 553.586,288.496 553.252,289.329 552.5,290C 543.757,293.744 535.091,297.578 526.5,301.5C 525.893,301.376 525.56,301.043 525.5,300.5C 533.162,296.34 541.162,292.673 549.5,289.5C 550.833,288.833 552.167,288.167 553.5,287.5 Z"/></g>
<g><path style="opacity:1" fill="#02060d" d="M 264.5,296.5 C 286.316,305.424 307.649,315.091 328.5,325.5C 328.5,337.167 328.5,348.833 328.5,360.5C 328.5,361.167 328.5,361.833 328.5,362.5C 321.28,359.175 313.947,355.842 306.5,352.5C 305.833,364.66 305.167,376.66 304.5,388.5C 304.828,376.322 304.495,364.322 303.5,352.5C 294.409,347.796 285.076,343.462 275.5,339.5C 274.791,338.596 273.791,338.263 272.5,338.5C 272.171,352.344 272.504,366.01 273.5,379.5C 273.5,380.5 273.5,381.5 273.5,382.5C 273.334,391.839 273.5,401.173 274,410.5C 276.599,412.879 279.433,414.879 282.5,416.5C 276.22,414.686 270.22,412.353 264.5,409.5C 264.696,398.67 264.696,387.004 264.5,374.5C 263.5,374.5 262.5,374.5 261.5,374.5C 261.5,373.5 261.5,372.5 261.5,371.5C 253.983,371.126 247.317,368.626 241.5,364C 239.187,363.338 236.854,362.838 234.5,362.5C 235.149,348.127 234.482,334.127 232.5,320.5C 233.705,319.314 235.039,319.314 236.5,320.5C 245.724,324.362 254.891,328.362 264,332.5C 264.5,320.505 264.667,308.505 264.5,296.5 Z"/></g>
<g><path style="opacity:1" fill="#395660" d="M 553.5,287.5 C 554.496,301.323 554.829,315.323 554.5,329.5C 543.889,332.302 533.556,335.968 523.5,340.5C 524.48,327.913 524.813,315.246 524.5,302.5C 524.158,301.662 523.492,301.328 522.5,301.5C 523.209,300.596 524.209,300.263 525.5,300.5C 525.56,301.043 525.893,301.376 526.5,301.5C 535.091,297.578 543.757,293.744 552.5,290C 553.252,289.329 553.586,288.496 553.5,287.5 Z"/></g>
<g><path style="opacity:1" fill="#08111b" d="M 151.5,292.5 C 151.172,304.678 151.505,316.678 152.5,328.5C 153.138,337.895 152.471,346.895 150.5,355.5C 142.065,352.45 133.731,349.117 125.5,345.5C 125.158,344.662 124.492,344.328 123.5,344.5C 122.942,343.21 121.942,342.377 120.5,342C 121.167,341.667 121.833,341.333 122.5,341C 121.167,339.16 121.334,338.66 123,339.5C 123.5,325.171 123.667,310.837 123.5,296.5C 124.833,296.5 126.167,296.5 127.5,296.5C 134.879,300.361 142.546,303.361 150.5,305.5C 150.182,300.968 150.515,296.634 151.5,292.5 Z"/></g>
<g><path style="opacity:1" fill="#152832" d="M 126.5,232.5 C 134.505,236.168 142.505,239.834 150.5,243.5C 150.67,244.822 150.337,245.989 149.5,247C 150.244,258.449 150.911,269.949 151.5,281.5C 149.314,278.389 146.314,276.222 142.5,275C 137.178,273.281 131.845,271.448 126.5,269.5C 124.91,278.742 125.243,287.742 127.5,296.5C 126.167,296.5 124.833,296.5 123.5,296.5C 123.667,310.837 123.5,325.171 123,339.5C 121.334,338.66 121.167,339.16 122.5,341C 121.833,341.333 121.167,341.667 120.5,342C 121.942,342.377 122.942,343.21 123.5,344.5C 122.833,356.673 122.167,369.007 121.5,381.5C 119.021,379.924 116.354,378.924 113.5,378.5C 110.167,376.5 106.833,374.5 103.5,372.5C 103.938,372.565 104.272,372.399 104.5,372C 102.601,367.822 101.935,363.322 102.5,358.5C 102.813,345.754 102.48,333.087 101.5,320.5C 101.842,309.628 102.842,298.961 104.5,288.5C 110.909,291.636 117.576,293.969 124.5,295.5C 124.5,286.167 124.5,276.833 124.5,267.5C 125.186,255.932 125.853,244.265 126.5,232.5 Z"/></g>
<g><path style="opacity:1" fill="#b1d9e1" d="M 151.5,282.5 C 161.418,286.797 171.084,291.464 180.5,296.5C 180.5,310.833 180.5,325.167 180.5,339.5C 170.969,336.404 161.636,332.737 152.5,328.5C 151.505,316.678 151.172,304.678 151.5,292.5C 151.5,289.167 151.5,285.833 151.5,282.5 Z"/></g>
<g><path style="opacity:1" fill="#aac3cb" d="M 522.5,301.5 C 523.492,301.328 524.158,301.662 524.5,302.5C 516.596,306.146 508.596,309.812 500.5,313.5C 499.571,325.965 499.238,338.299 499.5,350.5C 499.167,350.5 498.833,350.5 498.5,350.5C 498.5,337.833 498.5,325.167 498.5,312.5C 506.162,308.34 514.162,304.673 522.5,301.5 Z"/></g>
<g><path style="opacity:1" fill="#02050d" d="M 72.5,308.5 C 82.1447,312.494 91.8114,316.494 101.5,320.5C 102.48,333.087 102.813,345.754 102.5,358.5C 101.833,358.5 101.167,358.5 100.5,358.5C 100.5,357.833 100.167,357.5 99.5,357.5C 90.6223,353.228 81.6223,349.228 72.5,345.5C 72.0825,344.778 71.4158,344.278 70.5,344C 72.4665,332.419 73.1331,320.586 72.5,308.5 Z"/></g>
<g><path style="opacity:1" fill="#7ea1a6" d="M 360.5,306.5 C 361.167,306.833 361.833,307.167 362.5,307.5C 370.954,311.892 379.62,316.059 388.5,320C 390.373,320.953 390.706,322.12 389.5,323.5C 378.821,328.168 368.155,332.834 357.5,337.5C 356.969,335.376 355.635,333.876 353.5,333C 346.442,329.471 339.442,325.971 332.5,322.5C 340.686,318.257 349.019,314.09 357.5,310C 359.063,309.241 360.063,308.074 360.5,306.5 Z"/></g>
<g><path style="opacity:1" fill="#74969e" d="M 524.5,302.5 C 524.813,315.246 524.48,327.913 523.5,340.5C 522.508,340.328 521.842,340.662 521.5,341.5C 514.006,344.109 506.672,347.109 499.5,350.5C 499.238,338.299 499.571,325.965 500.5,313.5C 508.596,309.812 516.596,306.146 524.5,302.5 Z"/></g>
<g><path style="opacity:1" fill="#5a7e86" d="M 46.5,298.5 C 54.5052,302.67 62.8386,306.003 71.5,308.5C 71.6665,319.838 71.4999,331.172 71,342.5C 63.4277,338.964 55.9277,335.297 48.5,331.5C 47.8333,331.167 47.1667,330.833 46.5,330.5C 46.5,319.833 46.5,309.167 46.5,298.5 Z"/></g>
<g><path style="opacity:1" fill="#ebf3f5" d="M 87.5,209.5 C 97.8333,214.167 108.167,218.833 118.5,223.5C 129.276,228.717 140.276,233.717 151.5,238.5C 161.537,242.854 171.537,247.188 181.5,251.5C 190.944,256.723 200.611,261.723 210.5,266.5C 218.953,271.061 227.62,275.061 236.5,278.5C 247.312,282.567 257.979,287.233 268.5,292.5C 268.369,293.239 268.536,293.906 269,294.5C 271.709,293.803 274.376,293.47 277,293.5C 282.571,299.009 288.738,303.676 295.5,307.5C 297.516,306.294 299.516,306.294 301.5,307.5C 312.003,312.252 322.336,317.252 332.5,322.5C 339.442,325.971 346.442,329.471 353.5,333C 355.635,333.876 356.969,335.376 357.5,337.5C 357.5,338.167 357.167,338.5 356.5,338.5C 346.896,334.697 337.562,330.364 328.5,325.5C 307.649,315.091 286.316,305.424 264.5,296.5C 254.5,291.833 244.5,287.167 234.5,282.5C 225.026,278.56 215.693,274.226 206.5,269.5C 192.354,262.261 178.021,255.261 163.5,248.5C 159.307,246.575 154.974,244.908 150.5,243.5C 142.505,239.834 134.505,236.168 126.5,232.5C 113.132,225.816 99.7991,219.15 86.5,212.5C 87.1098,211.609 87.4431,210.609 87.5,209.5 Z"/></g>
<g><path style="opacity:1" fill="#6f8188" d="M 495.5,313.5 C 496.774,314.189 496.774,315.023 495.5,316C 487.58,319.463 479.58,322.63 471.5,325.5C 479.156,321.005 487.156,317.005 495.5,313.5 Z"/></g>
<g><path style="opacity:1" fill="#304b54" d="M 180.5,296.5 C 181.833,296.833 183.167,297.167 184.5,297.5C 191.309,301.07 198.309,304.403 205.5,307.5C 214.069,312.617 223.069,316.951 232.5,320.5C 234.482,334.127 235.149,348.127 234.5,362.5C 235.143,373.552 234.476,384.219 232.5,394.5C 224.53,391.184 216.53,387.851 208.5,384.5C 208.5,383.833 208.167,383.5 207.5,383.5C 206.972,382.279 206.305,381.113 205.5,380C 206.65,370.911 206.817,361.745 206,352.5C 198.753,349.947 191.919,346.447 185.5,342C 183.753,341.648 182.086,341.148 180.5,340.5C 180.5,340.167 180.5,339.833 180.5,339.5C 180.5,325.167 180.5,310.833 180.5,296.5 Z"/></g>
<g><path style="opacity:1" fill="#1e323d" d="M 495.5,313.5 C 496.209,312.596 497.209,312.263 498.5,312.5C 498.5,325.167 498.5,337.833 498.5,350.5C 498.167,350.5 497.833,350.5 497.5,350.5C 497.666,346.486 497.499,342.486 497,338.5C 488.844,343.495 480.344,347.828 471.5,351.5C 471.5,342.833 471.5,334.167 471.5,325.5C 479.58,322.63 487.58,319.463 495.5,316C 496.774,315.023 496.774,314.189 495.5,313.5 Z"/></g>
<g><path style="opacity:1" fill="#0e1e28" d="M 554.5,329.5 C 554.666,338.173 554.5,346.84 554,355.5C 551.072,356.607 548.572,358.274 546.5,360.5C 539.402,362.757 532.402,365.424 525.5,368.5C 525.186,360.913 525.519,353.413 526.5,346C 525.239,343.94 523.572,342.44 521.5,341.5C 521.842,340.662 522.508,340.328 523.5,340.5C 533.556,335.968 543.889,332.302 554.5,329.5 Z"/></g>
<g><path style="opacity:1" fill="#6f9197" d="M 328.5,325.5 C 337.562,330.364 346.896,334.697 356.5,338.5C 356.5,349.167 356.5,359.833 356.5,370.5C 354.801,370.66 353.134,370.494 351.5,370C 343.867,366.679 336.2,363.513 328.5,360.5C 328.5,348.833 328.5,337.167 328.5,325.5 Z"/></g>
<g><path style="opacity:1" fill="#51727a" d="M 152.5,328.5 C 161.636,332.737 170.969,336.404 180.5,339.5C 180.5,339.833 180.5,340.167 180.5,340.5C 180.832,350.19 180.498,359.856 179.5,369.5C 175.91,367.868 172.243,366.534 168.5,365.5C 163.608,364.054 158.941,362.054 154.5,359.5C 153.833,358.833 153.167,358.167 152.5,357.5C 151.833,356.833 151.167,356.167 150.5,355.5C 152.471,346.895 153.138,337.895 152.5,328.5 Z"/></g>
<g><path style="opacity:1" fill="#fafbfc" d="M 275.5,339.5 C 285.076,343.462 294.409,347.796 303.5,352.5C 303.5,363.5 303.5,374.5 303.5,385.5C 297.241,384.539 291.241,382.705 285.5,380C 283.028,378.907 281.028,377.24 279.5,375C 277.527,374.505 275.527,374.338 273.5,374.5C 272.855,362.452 273.522,350.785 275.5,339.5 Z"/></g>
<g><path style="opacity:1" fill="#010002" d="M 572.5,386.5 C 567.544,389.105 562.377,391.438 557,393.5C 556.5,405.162 556.333,416.829 556.5,428.5C 559.947,428.186 563.28,427.352 566.5,426C 569.723,423.459 573.39,421.959 577.5,421.5C 579.063,418.971 581.396,417.971 584.5,418.5C 584.5,419.167 584.5,419.833 584.5,420.5C 583.539,422.265 583.205,424.265 583.5,426.5C 583.804,435.584 583.471,444.584 582.5,453.5C 573.98,457.261 565.647,461.261 557.5,465.5C 538.647,471.072 520.481,478.072 503,486.5C 502.014,485.829 500.847,485.829 499.5,486.5C 499.5,475.833 499.5,465.167 499.5,454.5C 491.949,456.573 484.616,459.239 477.5,462.5C 475.042,461.377 472.875,461.377 471,462.5C 470.89,460.152 469.723,458.652 467.5,458C 470.589,454.572 471.256,450.739 469.5,446.5C 469.622,440.581 470.788,434.915 473,429.5C 473.333,430.167 473.667,430.833 474,431.5C 474.49,430.207 474.657,428.873 474.5,427.5C 478.825,425.994 483.158,424.327 487.5,422.5C 488.386,421.675 488.719,420.675 488.5,419.5C 492.051,418.39 495.551,418.39 499,419.5C 499.82,430.41 499.653,441.243 498.5,452C 502.982,450.889 507.649,450.055 512.5,449.5C 512.281,448.325 512.614,447.325 513.5,446.5C 517.691,444.107 522.024,442.107 526.5,440.5C 527.11,416.472 526.777,392.472 525.5,368.5C 532.402,365.424 539.402,362.757 546.5,360.5C 549.778,359.059 552.944,357.392 556,355.5C 557.043,359.226 557.543,358.893 557.5,354.5C 563.089,353.922 567.922,353.922 572,354.5C 573.832,349.827 576.666,345.827 580.5,342.5C 581.086,342.709 581.586,343.043 582,343.5C 581.131,356.211 581.464,367.544 583,377.5C 582.204,379.967 580.537,381.3 578,381.5C 574.937,381.065 574.77,380.232 577.5,379C 576.207,378.51 574.873,378.343 573.5,378.5C 573.599,381.237 573.265,383.904 572.5,386.5 Z"/></g>
<g><path style="opacity:1" fill="#01020a" d="M 497.5,350.5 C 498.07,360.053 498.737,369.553 499.5,379C 494.338,383.481 488.338,386.147 481.5,387C 477.761,389.197 474.094,391.363 470.5,393.5C 470.265,392.903 469.765,392.57 469,392.5C 466.357,394.238 463.523,395.572 460.5,396.5C 460.354,394.058 461.187,393.391 463,394.5C 464.395,391.833 466.395,389.833 469,388.5C 469.777,390.701 470.944,390.701 472.5,388.5C 471.478,387.646 470.645,386.646 470,385.5C 469.155,374.093 469.655,362.759 471.5,351.5C 480.344,347.828 488.844,343.495 497,338.5C 497.499,342.486 497.666,346.486 497.5,350.5 Z"/></g>
<g><path style="opacity:1" fill="#d4e6ed" d="M 125.5,345.5 C 133.731,349.117 142.065,352.45 150.5,355.5C 151.167,356.167 151.833,356.833 152.5,357.5C 152.265,358.097 151.765,358.43 151,358.5C 141.474,355.103 132.307,350.937 123.5,346C 124.094,345.536 124.761,345.369 125.5,345.5 Z"/></g>
<g><path style="opacity:1" fill="#324c56" d="M 612.5,338.5 C 612.5,348.833 612.5,359.167 612.5,369.5C 603.148,372.846 593.814,376.179 584.5,379.5C 584.333,368.495 584.5,357.495 585,346.5C 593.677,342.28 602.511,338.28 611.5,334.5C 612.429,335.689 612.762,337.022 612.5,338.5 Z"/></g>
<g><path style="opacity:1" fill="#b5c4cc" d="M 72.5,345.5 C 81.6223,349.228 90.6223,353.228 99.5,357.5C 99.44,358.043 99.1067,358.376 98.5,358.5C 89.8749,354.57 81.2083,350.736 72.5,347C 71.2617,346.31 71.2617,345.81 72.5,345.5 Z"/></g>
<g><path style="opacity:1" fill="#1f3842" d="M 47.5,348.5 C 50.4721,350.322 53.4721,352.156 56.5,354C 61.9219,356.131 67.2552,358.298 72.5,360.5C 70.5977,363.337 69.931,366.671 70.5,370.5C 70.6661,376.176 70.4994,381.843 70,387.5C 62.1558,384.494 54.6558,380.828 47.5,376.5C 47.5,367.167 47.5,357.833 47.5,348.5 Z"/></g>
<g><path style="opacity:1" fill="#2e4951" d="M 71.5,308.5 C 71.8333,308.5 72.1667,308.5 72.5,308.5C 73.1331,320.586 72.4665,332.419 70.5,344C 71.4158,344.278 72.0825,344.778 72.5,345.5C 71.2617,345.81 71.2617,346.31 72.5,347C 81.2083,350.736 89.8749,354.57 98.5,358.5C 99.1067,358.376 99.44,358.043 99.5,357.5C 100.167,357.5 100.5,357.833 100.5,358.5C 100.5,363.167 100.5,367.833 100.5,372.5C 90.6783,369.588 81.345,365.588 72.5,360.5C 67.2552,358.298 61.9219,356.131 56.5,354C 53.4721,352.156 50.4721,350.322 47.5,348.5C 47.2143,342.741 47.5476,337.075 48.5,331.5C 55.9277,335.297 63.4277,338.964 71,342.5C 71.4999,331.172 71.6665,319.838 71.5,308.5 Z"/></g>
<g><path style="opacity:1" fill="#09151f" d="M 328.5,362.5 C 328.196,371.584 328.529,380.584 329.5,389.5C 328.691,390.469 327.691,391.302 326.5,392C 328.308,405.926 329.141,420.093 329,434.5C 329.698,435.691 330.531,436.691 331.5,437.5C 330.508,437.328 329.842,437.662 329.5,438.5C 328.842,437.602 328.176,436.602 327.5,435.5C 325.995,438.131 325.329,437.797 325.5,434.5C 321.557,434.405 318.057,433.072 315,430.5C 314.228,430.645 313.561,430.978 313,431.5C 312.3,429.968 311.134,428.968 309.5,428.5C 308.24,426.647 308.24,424.814 309.5,423C 309,422.5 308.5,422 308,421.5C 307.901,423.653 307.067,425.319 305.5,426.5C 305.167,426.5 304.833,426.5 304.5,426.5C 304.5,425.833 304.5,425.167 304.5,424.5C 304.5,412.5 304.5,400.5 304.5,388.5C 305.167,376.66 305.833,364.66 306.5,352.5C 313.947,355.842 321.28,359.175 328.5,362.5 Z"/></g>
<g><path style="opacity:1" fill="#4d5054" d="M 275.5,339.5 C 273.522,350.785 272.855,362.452 273.5,374.5C 273.5,376.167 273.5,377.833 273.5,379.5C 272.504,366.01 272.171,352.344 272.5,338.5C 273.791,338.263 274.791,338.596 275.5,339.5 Z"/></g>
<g><path style="opacity:1" fill="#8caeb5" d="M 123.5,344.5 C 124.492,344.328 125.158,344.662 125.5,345.5C 124.761,345.369 124.094,345.536 123.5,346C 132.307,350.937 141.474,355.103 151,358.5C 151.765,358.43 152.265,358.097 152.5,357.5C 153.167,358.167 153.833,358.833 154.5,359.5C 154.19,372.134 153.19,384.467 151.5,396.5C 141.715,392.441 132.048,388.108 122.5,383.5C 118.893,382.757 115.893,381.091 113.5,378.5C 116.354,378.924 119.021,379.924 121.5,381.5C 122.167,369.007 122.833,356.673 123.5,344.5 Z"/></g>
<g><path style="opacity:1" fill="#46646c" d="M 328.5,360.5 C 336.2,363.513 343.867,366.679 351.5,370C 353.134,370.494 354.801,370.66 356.5,370.5C 356.5,379.5 356.5,388.5 356.5,397.5C 356.762,398.978 356.429,400.311 355.5,401.5C 346.75,397.455 338.084,393.455 329.5,389.5C 328.529,380.584 328.196,371.584 328.5,362.5C 328.5,361.833 328.5,361.167 328.5,360.5 Z"/></g>
<g><path style="opacity:1" fill="#688991" d="M 154.5,359.5 C 158.941,362.054 163.608,364.054 168.5,365.5C 171.983,368.237 175.983,369.903 180.5,370.5C 181.148,383.876 180.481,396.876 178.5,409.5C 169.749,405.694 161.082,401.694 152.5,397.5C 151.833,397.5 151.5,397.167 151.5,396.5C 153.19,384.467 154.19,372.134 154.5,359.5 Z"/></g>
<g><path style="opacity:1" fill="#1b313c" d="M 180.5,340.5 C 182.086,341.148 183.753,341.648 185.5,342C 191.919,346.447 198.753,349.947 206,352.5C 206.817,361.745 206.65,370.911 205.5,380C 206.305,381.113 206.972,382.279 207.5,383.5C 206.669,396.327 206.169,409.327 206,422.5C 197.049,417.974 187.882,413.974 178.5,410.5C 178.5,410.167 178.5,409.833 178.5,409.5C 180.481,396.876 181.148,383.876 180.5,370.5C 175.983,369.903 171.983,368.237 168.5,365.5C 172.243,366.534 175.91,367.868 179.5,369.5C 180.498,359.856 180.832,350.19 180.5,340.5 Z"/></g>
<g><path style="opacity:1" fill="#050d17" d="M 521.5,341.5 C 523.572,342.44 525.239,343.94 526.5,346C 525.519,353.413 525.186,360.913 525.5,368.5C 526.777,392.472 527.11,416.472 526.5,440.5C 522.024,442.107 517.691,444.107 513.5,446.5C 512.614,447.325 512.281,448.325 512.5,449.5C 507.649,450.055 502.982,450.889 498.5,452C 499.653,441.243 499.82,430.41 499,419.5C 495.551,418.39 492.051,418.39 488.5,419.5C 488.719,420.675 488.386,421.675 487.5,422.5C 483.158,424.327 478.825,425.994 474.5,427.5C 473.167,427.833 471.833,428.167 470.5,428.5C 470.5,416.833 470.5,405.167 470.5,393.5C 474.094,391.363 477.761,389.197 481.5,387C 488.338,386.147 494.338,383.481 499.5,379C 498.737,369.553 498.07,360.053 497.5,350.5C 497.833,350.5 498.167,350.5 498.5,350.5C 498.833,350.5 499.167,350.5 499.5,350.5C 506.672,347.109 514.006,344.109 521.5,341.5 Z"/></g>
<g><path style="opacity:1" fill="#c8f4f8" d="M 273.5,374.5 C 275.527,374.338 277.527,374.505 279.5,375C 281.028,377.24 283.028,378.907 285.5,380C 291.241,382.705 297.241,384.539 303.5,385.5C 303.817,388.572 303.484,391.572 302.5,394.5C 292.916,390.205 283.249,386.205 273.5,382.5C 273.5,381.5 273.5,380.5 273.5,379.5C 273.5,377.833 273.5,376.167 273.5,374.5 Z"/></g>
<g><path style="opacity:1" fill="#618189" d="M 103.5,372.5 C 106.833,374.5 110.167,376.5 113.5,378.5C 115.893,381.091 118.893,382.757 122.5,383.5C 122.5,395.833 122.5,408.167 122.5,420.5C 115.384,417.775 108.384,414.775 101.5,411.5C 100.852,398.124 101.519,385.124 103.5,372.5 Z"/></g>
<g><path style="opacity:1" fill="#050d17" d="M 584.5,379.5 C 584.5,392.5 584.5,405.5 584.5,418.5C 581.396,417.971 579.063,418.971 577.5,421.5C 573.39,421.959 569.723,423.459 566.5,426C 563.28,427.352 559.947,428.186 556.5,428.5C 556.333,416.829 556.5,405.162 557,393.5C 562.377,391.438 567.544,389.105 572.5,386.5C 575.644,384.724 578.977,383.224 582.5,382C 583.066,381.005 583.733,380.172 584.5,379.5 Z"/></g>
<g><path style="opacity:1" fill="#02060e" d="M 329.5,389.5 C 338.084,393.455 346.75,397.455 355.5,401.5C 356.429,400.311 356.762,398.978 356.5,397.5C 356.526,414.694 356.526,431.694 356.5,448.5C 348.014,445.089 339.681,441.422 331.5,437.5C 330.531,436.691 329.698,435.691 329,434.5C 329.141,420.093 328.308,405.926 326.5,392C 327.691,391.302 328.691,390.469 329.5,389.5 Z"/></g>
<g><path style="opacity:1" fill="#08111b" d="M 122.5,383.5 C 132.048,388.108 141.715,392.441 151.5,396.5C 151.5,397.167 151.833,397.5 152.5,397.5C 152.082,398.222 151.416,398.722 150.5,399C 152.301,409.917 153.134,421.084 153,432.5C 155.314,433.733 157.481,435.067 159.5,436.5C 157.784,436.371 156.117,436.038 154.5,435.5C 145.167,431.167 135.833,426.833 126.5,422.5C 125.167,421.833 123.833,421.167 122.5,420.5C 122.5,408.167 122.5,395.833 122.5,383.5 Z"/></g>
<g><path style="opacity:1" fill="#5b7b82" d="M 303.5,352.5 C 304.495,364.322 304.828,376.322 304.5,388.5C 304.5,400.5 304.5,412.5 304.5,424.5C 297.167,421.833 289.833,419.167 282.5,416.5C 279.433,414.879 276.599,412.879 274,410.5C 273.5,401.173 273.334,391.839 273.5,382.5C 283.249,386.205 292.916,390.205 302.5,394.5C 303.484,391.572 303.817,388.572 303.5,385.5C 303.5,374.5 303.5,363.5 303.5,352.5 Z"/></g>
<g><path style="opacity:1" fill="#202c36" d="M 642.5,395.5 C 642.5,396.5 642.5,397.5 642.5,398.5C 634.388,400.555 626.722,403.721 619.5,408C 617.421,408.808 615.421,408.641 613.5,407.5C 622.65,402.337 632.316,398.337 642.5,395.5 Z"/></g>
<g><path style="opacity:1" fill="#050e19" d="M 612.5,338.5 C 613.491,344.979 613.824,351.646 613.5,358.5C 613.575,361.206 613.908,363.873 614.5,366.5C 618.785,365.705 623.119,365.372 627.5,365.5C 627.281,364.325 627.614,363.325 628.5,362.5C 632.803,361.122 636.97,359.456 641,357.5C 642.374,370.12 642.874,382.787 642.5,395.5C 632.316,398.337 622.65,402.337 613.5,407.5C 615.421,408.641 617.421,408.808 619.5,408C 626.722,403.721 634.388,400.555 642.5,398.5C 642.667,415.837 642.5,433.17 642,450.5C 639.28,451.223 637.113,452.723 635.5,455C 631.209,454.792 627.542,456.125 624.5,459C 620.93,460.31 617.263,461.143 613.5,461.5C 613.829,474.344 613.495,487.011 612.5,499.5C 612.5,480.5 612.5,461.5 612.5,442.5C 612.5,431.833 612.5,421.167 612.5,410.5C 612.5,410.167 612.5,409.833 612.5,409.5C 612.5,396.167 612.5,382.833 612.5,369.5C 612.5,359.167 612.5,348.833 612.5,338.5 Z"/></g>
<g><path style="opacity:1" fill="#182c36" d="M 612.5,369.5 C 612.5,382.833 612.5,396.167 612.5,409.5C 607.446,410.684 602.446,412.184 597.5,414C 593.145,416.178 588.811,418.344 584.5,420.5C 584.5,419.833 584.5,419.167 584.5,418.5C 584.5,405.5 584.5,392.5 584.5,379.5C 593.814,376.179 603.148,372.846 612.5,369.5 Z"/></g>
<g><path style="opacity:1" fill="#0a1821" d="M 100.5,358.5 C 101.167,358.5 101.833,358.5 102.5,358.5C 101.935,363.322 102.601,367.822 104.5,372C 104.272,372.399 103.938,372.565 103.5,372.5C 101.519,385.124 100.852,398.124 101.5,411.5C 100.505,424.323 100.171,437.323 100.5,450.5C 100.5,462.5 100.5,474.5 100.5,486.5C 100.167,487.833 99.8333,489.167 99.5,490.5C 90.3015,486.399 81.3015,482.066 72.5,477.5C 72.5,467.167 72.5,456.833 72.5,446.5C 71.209,446.737 70.209,446.404 69.5,445.5C 70.5,445.5 71.5,445.5 72.5,445.5C 72.4125,420.324 71.7459,395.324 70.5,370.5C 69.931,366.671 70.5977,363.337 72.5,360.5C 81.345,365.588 90.6783,369.588 100.5,372.5C 100.5,367.833 100.5,363.167 100.5,358.5 Z"/></g>
<g><path style="opacity:1" fill="#08111b" d="M 234.5,362.5 C 236.854,362.838 239.187,363.338 241.5,364C 247.317,368.626 253.983,371.126 261.5,371.5C 261.5,372.5 261.5,373.5 261.5,374.5C 262.5,374.5 263.5,374.5 264.5,374.5C 264.696,387.004 264.696,398.67 264.5,409.5C 263.833,409.5 263.167,409.5 262.5,409.5C 261.505,420.321 261.172,431.321 261.5,442.5C 252.726,439.608 244.393,435.942 236.5,431.5C 236.938,431.565 237.272,431.399 237.5,431C 236.257,429.846 235.257,428.512 234.5,427C 235.818,416.894 235.818,406.728 234.5,396.5C 233.478,396.145 232.811,395.478 232.5,394.5C 234.476,384.219 235.143,373.552 234.5,362.5 Z"/></g>
<g><path style="opacity:1" fill="#11222b" d="M 152.5,397.5 C 161.082,401.694 169.749,405.694 178.5,409.5C 178.5,409.833 178.5,410.167 178.5,410.5C 178.5,421.833 178.5,433.167 178.5,444.5C 178.5,444.833 178.5,445.167 178.5,445.5C 171.837,443.064 165.503,440.064 159.5,436.5C 157.481,435.067 155.314,433.733 153,432.5C 153.134,421.084 152.301,409.917 150.5,399C 151.416,398.722 152.082,398.222 152.5,397.5 Z"/></g>
<g><path style="opacity:1" fill="#12252f" d="M 70.5,370.5 C 71.7459,395.324 72.4125,420.324 72.5,445.5C 71.5,445.5 70.5,445.5 69.5,445.5C 62.0273,442.513 54.8606,438.847 48,434.5C 47.5,415.17 47.3334,395.836 47.5,376.5C 54.6558,380.828 62.1558,384.494 70,387.5C 70.4994,381.843 70.6661,376.176 70.5,370.5 Z"/></g>
<g><path style="opacity:1" fill="#07101b" d="M 207.5,383.5 C 208.167,383.5 208.5,383.833 208.5,384.5C 207.782,407.682 207.116,431.016 206.5,454.5C 203.654,454.97 201.321,454.137 199.5,452C 196.51,451.103 193.51,450.269 190.5,449.5C 189.713,448.758 189.047,447.925 188.5,447C 185.198,445.974 181.865,445.14 178.5,444.5C 178.5,433.167 178.5,421.833 178.5,410.5C 187.882,413.974 197.049,417.974 206,422.5C 206.169,409.327 206.669,396.327 207.5,383.5 Z"/></g>
<g><path style="opacity:1" fill="#f8fafc" d="M 101.5,411.5 C 108.384,414.775 115.384,417.775 122.5,420.5C 123.833,421.167 125.167,421.833 126.5,422.5C 126.414,423.496 126.748,424.329 127.5,425C 126.552,425.483 125.552,425.649 124.5,425.5C 124.5,433.833 124.5,442.167 124.5,450.5C 124.5,455.167 124.5,459.833 124.5,464.5C 122.184,463.84 119.851,463.173 117.5,462.5C 112.947,458.561 107.614,456.227 101.5,455.5C 101.784,453.585 101.451,451.919 100.5,450.5C 100.171,437.323 100.505,424.323 101.5,411.5 Z"/></g>
<g><path style="opacity:1" fill="#324d57" d="M 612.5,410.5 C 612.5,421.167 612.5,431.833 612.5,442.5C 610.146,442.838 607.813,443.338 605.5,444C 599.117,447.301 592.451,450.134 585.5,452.5C 584.833,443.676 584.167,435.009 583.5,426.5C 583.205,424.265 583.539,422.265 584.5,420.5C 584.369,421.376 584.702,422.043 585.5,422.5C 594.644,418.76 603.644,414.76 612.5,410.5 Z"/></g>
<g><path style="opacity:1" fill="#92aeb5" d="M 612.5,409.5 C 612.5,409.833 612.5,410.167 612.5,410.5C 603.644,414.76 594.644,418.76 585.5,422.5C 584.702,422.043 584.369,421.376 584.5,420.5C 588.811,418.344 593.145,416.178 597.5,414C 602.446,412.184 607.446,410.684 612.5,409.5 Z"/></g>
<g><path style="opacity:1" fill="#010207" d="M 208.5,384.5 C 216.53,387.851 224.53,391.184 232.5,394.5C 232.811,395.478 233.478,396.145 234.5,396.5C 235.818,406.728 235.818,416.894 234.5,427C 235.257,428.512 236.257,429.846 237.5,431C 237.272,431.399 236.938,431.565 236.5,431.5C 235.5,431.5 234.5,431.5 233.5,431.5C 233.5,442.167 233.5,452.833 233.5,463.5C 232.778,463.918 232.278,464.584 232,465.5C 231.333,462.833 230.667,462.833 230,465.5C 221.997,463.136 214.497,459.803 207.5,455.5C 206.502,465.144 206.168,474.81 206.5,484.5C 200.05,481.407 193.383,478.74 186.5,476.5C 185.191,474.024 183.358,472.024 181,470.5C 179.894,462.091 179.06,453.758 178.5,445.5C 178.5,445.167 178.5,444.833 178.5,444.5C 181.865,445.14 185.198,445.974 188.5,447C 189.047,447.925 189.713,448.758 190.5,449.5C 193.51,450.269 196.51,451.103 199.5,452C 201.321,454.137 203.654,454.97 206.5,454.5C 207.116,431.016 207.782,407.682 208.5,384.5 Z"/></g>
<g><path style="opacity:1" fill="#36535e" d="M 438.5,407.5 C 439.209,406.596 440.209,406.263 441.5,406.5C 441.172,418.012 441.505,429.346 442.5,440.5C 433.873,444.497 425.207,448.497 416.5,452.5C 416.333,441.495 416.5,430.495 417,419.5C 424.51,416.076 432.01,412.576 439.5,409C 440.712,407.893 440.379,407.393 438.5,407.5 Z"/></g>
<g><path style="opacity:1" fill="#274750" d="M 282.5,416.5 C 289.833,419.167 297.167,421.833 304.5,424.5C 304.5,425.167 304.5,425.833 304.5,426.5C 296.86,423.677 289.527,420.344 282.5,416.5 Z"/></g>
<g><path style="opacity:1" fill="#7fa0a8" d="M 470.5,393.5 C 470.5,405.167 470.5,416.833 470.5,428.5C 461.403,433.048 452.07,437.048 442.5,440.5C 441.505,429.346 441.172,418.012 441.5,406.5C 441.369,405.624 441.702,404.957 442.5,404.5C 448.613,402.021 454.613,399.354 460.5,396.5C 463.523,395.572 466.357,394.238 469,392.5C 469.765,392.57 470.265,392.903 470.5,393.5 Z"/></g>
<g><path style="opacity:1" fill="#02060e" d="M 414.5,419.5 C 413.856,430.884 414.523,441.884 416.5,452.5C 425.207,448.497 433.873,444.497 442.5,440.5C 452.07,437.048 461.403,433.048 470.5,428.5C 471.833,428.167 473.167,427.833 474.5,427.5C 474.657,428.873 474.49,430.207 474,431.5C 473.667,430.833 473.333,430.167 473,429.5C 470.788,434.915 469.622,440.581 469.5,446.5C 471.256,450.739 470.589,454.572 467.5,458C 469.723,458.652 470.89,460.152 471,462.5C 472.875,461.377 475.042,461.377 477.5,462.5C 465.541,466.807 453.541,471.14 441.5,475.5C 441.5,485.167 441.5,494.833 441.5,504.5C 440.671,496.677 440.171,488.677 440,480.5C 439.085,479.672 438.419,478.672 438,477.5C 425.089,484.411 411.589,489.411 397.5,492.5C 396.711,495.434 394.711,497.268 391.5,498C 389.888,498.72 388.388,498.554 387,497.5C 387.089,487.455 386.923,477.455 386.5,467.5C 387.924,465.282 389.924,463.782 392.5,463C 399.65,460.625 406.65,457.791 413.5,454.5C 413.428,451.807 413.095,449.14 412.5,446.5C 413.085,437.343 413.752,428.343 414.5,419.5 Z"/></g>
<g><path style="opacity:1" fill="#a8ccd5" d="M 262.5,409.5 C 263.167,409.5 263.833,409.5 264.5,409.5C 270.22,412.353 276.22,414.686 282.5,416.5C 289.527,420.344 296.86,423.677 304.5,426.5C 304.832,438.186 304.499,449.852 303.5,461.5C 289.82,455.445 276.32,449.112 263,442.5C 262.5,431.505 262.333,420.505 262.5,409.5 Z"/></g>
<g><path style="opacity:1" fill="#f8fafc" d="M 236.5,431.5 C 244.393,435.942 252.726,439.608 261.5,442.5C 261.5,453.5 261.5,464.5 261.5,475.5C 251.941,472.054 242.608,468.054 233.5,463.5C 233.5,452.833 233.5,442.167 233.5,431.5C 234.5,431.5 235.5,431.5 236.5,431.5 Z"/></g>
<g><path style="opacity:1" fill="#c0e9f1" d="M 126.5,422.5 C 135.833,426.833 145.167,431.167 154.5,435.5C 154.196,444.584 154.529,453.584 155.5,462.5C 155.027,463.906 154.027,464.573 152.5,464.5C 143.544,459.279 134.21,454.612 124.5,450.5C 124.5,442.167 124.5,433.833 124.5,425.5C 125.552,425.649 126.552,425.483 127.5,425C 126.748,424.329 126.414,423.496 126.5,422.5 Z"/></g>
<g><path style="opacity:1" fill="#7a8d96" d="M 438.5,407.5 C 440.379,407.393 440.712,407.893 439.5,409C 432.01,412.576 424.51,416.076 417,419.5C 416.5,430.495 416.333,441.495 416.5,452.5C 414.523,441.884 413.856,430.884 414.5,419.5C 421.908,414.463 429.908,410.463 438.5,407.5 Z"/></g>
<g><path style="opacity:1" fill="#517179" d="M 154.5,435.5 C 156.117,436.038 157.784,436.371 159.5,436.5C 165.503,440.064 171.837,443.064 178.5,445.5C 178.5,454.167 178.5,462.833 178.5,471.5C 170.975,468.241 163.308,465.241 155.5,462.5C 154.529,453.584 154.196,444.584 154.5,435.5 Z"/></g>
<g><path style="opacity:1" fill="#020a12" d="M 46.5,330.5 C 47.1667,330.833 47.8333,331.167 48.5,331.5C 47.5476,337.075 47.2143,342.741 47.5,348.5C 47.5,357.833 47.5,367.167 47.5,376.5C 47.3334,395.836 47.5,415.17 48,434.5C 54.8606,438.847 62.0273,442.513 69.5,445.5C 70.209,446.404 71.209,446.737 72.5,446.5C 72.5,456.833 72.5,467.167 72.5,477.5C 72.5,487.5 72.5,497.5 72.5,507.5C 72.5,513.5 72.5,519.5 72.5,525.5C 72.1685,534.525 72.5018,543.525 73.5,552.5C 77.0151,553.42 80.0151,555.087 82.5,557.5C 79.8458,558.122 77.3458,559.122 75,560.5C 71.2193,558.175 67.386,556.175 63.5,554.5C 63.8076,552.076 63.4742,549.743 62.5,547.5C 60.9291,546.691 59.2624,546.357 57.5,546.5C 57.5,541.167 57.5,535.833 57.5,530.5C 56.1667,530.5 54.8333,530.5 53.5,530.5C 53.6664,521.494 53.4998,512.494 53,503.5C 52.3333,518.167 51.6667,518.167 51,503.5C 50.6667,503.833 50.3333,504.167 50,504.5C 48.2093,490.527 48.0426,476.527 49.5,462.5C 48.8533,455.305 47.8533,448.305 46.5,441.5C 46.5,404.5 46.5,367.5 46.5,330.5 Z"/></g>
<g><path style="opacity:1" fill="#304a53" d="M 331.5,437.5 C 339.681,441.422 348.014,445.089 356.5,448.5C 356.5,459.5 356.5,470.5 356.5,481.5C 347.268,478.801 338.435,475.134 330,470.5C 329.5,459.839 329.333,449.172 329.5,438.5C 329.842,437.662 330.508,437.328 331.5,437.5 Z"/></g>
<g><path style="opacity:1" fill="#132631" d="M 583.5,426.5 C 584.167,435.009 584.833,443.676 585.5,452.5C 592.451,450.134 599.117,447.301 605.5,444C 607.813,443.338 610.146,442.838 612.5,442.5C 612.5,461.5 612.5,480.5 612.5,499.5C 602.644,503.598 592.977,507.932 583.5,512.5C 583.5,502.167 583.5,491.833 583.5,481.5C 583.827,471.985 583.494,462.652 582.5,453.5C 583.471,444.584 583.804,435.584 583.5,426.5 Z"/></g>
<g><path style="opacity:1" fill="#0e1c27" d="M 499.5,486.5 C 499.5,487.833 499.5,489.167 499.5,490.5C 498.596,489.791 498.263,488.791 498.5,487.5C 489.185,490.322 480.185,493.989 471.5,498.5C 464.772,499.782 458.272,501.782 452,504.5C 449.224,505.902 446.724,507.569 444.5,509.5C 443.833,509.5 443.167,509.5 442.5,509.5C 441.699,507.958 441.366,506.292 441.5,504.5C 441.5,494.833 441.5,485.167 441.5,475.5C 453.541,471.14 465.541,466.807 477.5,462.5C 484.616,459.239 491.949,456.573 499.5,454.5C 499.5,465.167 499.5,475.833 499.5,486.5 Z"/></g>
<g><path style="opacity:1" fill="#4a6971" d="M 262.5,409.5 C 262.333,420.505 262.5,431.505 263,442.5C 276.32,449.112 289.82,455.445 303.5,461.5C 304.499,449.852 304.832,438.186 304.5,426.5C 304.833,426.5 305.167,426.5 305.5,426.5C 305.168,438.518 305.501,450.518 306.5,462.5C 314.071,465.285 321.405,468.619 328.5,472.5C 329.298,472.957 329.631,473.624 329.5,474.5C 329.5,477.167 329.5,479.833 329.5,482.5C 328.673,487.651 328.173,492.984 328,498.5C 327.667,491.5 327.333,484.5 327,477.5C 326.682,475.939 325.849,474.772 324.5,474C 324.833,473.667 325.167,473.333 325.5,473C 322.824,473.034 320.157,473.534 317.5,474.5C 316.479,475.002 316.312,475.668 317,476.5C 319.027,477.693 320.527,479.36 321.5,481.5C 320.337,486.822 319.17,492.155 318,497.5C 317.586,497.957 317.086,498.291 316.5,498.5C 315.197,495.957 314.197,493.29 313.5,490.5C 311.724,488.553 309.724,488.22 307.5,489.5C 306.662,492.083 306.662,494.916 307.5,498C 306.207,498.49 304.873,498.657 303.5,498.5C 303.784,496.585 303.451,494.919 302.5,493.5C 288.955,487.228 275.288,481.228 261.5,475.5C 261.5,464.5 261.5,453.5 261.5,442.5C 261.172,431.321 261.505,420.321 262.5,409.5 Z"/></g>
<g><path style="opacity:1" fill="#d2f6fb" d="M 101.5,455.5 C 107.614,456.227 112.947,458.561 117.5,462.5C 119.851,463.173 122.184,463.84 124.5,464.5C 124.5,465.5 124.5,466.5 124.5,467.5C 123.549,468.919 123.216,470.585 123.5,472.5C 116.167,469.167 108.833,465.833 101.5,462.5C 101.5,460.167 101.5,457.833 101.5,455.5 Z"/></g>
<g><path style="opacity:1" fill="#2c4850" d="M 124.5,450.5 C 134.21,454.612 143.544,459.279 152.5,464.5C 152.5,469.167 152.5,473.833 152.5,478.5C 150.801,478.66 149.134,478.494 147.5,478C 140.307,473.437 132.64,469.937 124.5,467.5C 124.5,466.5 124.5,465.5 124.5,464.5C 124.5,459.833 124.5,455.167 124.5,450.5 Z"/></g>
<g><path style="opacity:1" fill="#01040b" d="M 557.5,465.5 C 557.5,474.167 557.5,482.833 557.5,491.5C 556.858,502.221 557.525,512.554 559.5,522.5C 558.496,523.683 557.662,525.016 557,526.5C 556.667,543.833 556.333,561.167 556,578.5C 550.445,579.387 544.279,579.387 537.5,578.5C 537.5,575.833 537.5,573.167 537.5,570.5C 542.833,569.833 542.833,569.167 537.5,568.5C 537.5,567.5 537.5,566.5 537.5,565.5C 535.549,565.227 534.049,565.893 533,567.5C 532.873,569.634 533.039,571.801 533.5,574C 533.325,575.658 532.658,576.991 531.5,578C 532.249,579.734 532.749,581.567 533,583.5C 533.64,581.602 534.973,581.268 537,582.5C 538.365,582.156 539.532,581.489 540.5,580.5C 541.641,582.421 541.808,584.421 541,586.5C 538.712,586.737 536.212,586.737 533.5,586.5C 533.649,587.552 533.483,588.552 533,589.5C 532.23,588.402 531.397,588.402 530.5,589.5C 530.5,581.833 530.5,574.167 530.5,566.5C 530.667,546.497 530.5,526.497 530,506.5C 529.275,505.941 528.442,505.608 527.5,505.5C 521.466,506.218 515.8,507.884 510.5,510.5C 509.754,511.736 509.421,513.07 509.5,514.5C 506.065,513.632 502.731,513.632 499.5,514.5C 499.5,506.5 499.5,498.5 499.5,490.5C 499.5,489.167 499.5,487.833 499.5,486.5C 500.847,485.829 502.014,485.829 503,486.5C 520.481,478.072 538.647,471.072 557.5,465.5 Z"/></g>
<g><path style="opacity:1" fill="#acd3de" d="M 582.5,453.5 C 583.494,462.652 583.827,471.985 583.5,481.5C 574.823,484.84 566.157,488.173 557.5,491.5C 557.5,482.833 557.5,474.167 557.5,465.5C 565.647,461.261 573.98,457.261 582.5,453.5 Z"/></g>
<g><path style="opacity:1" fill="#b4dae3" d="M 100.5,450.5 C 101.451,451.919 101.784,453.585 101.5,455.5C 101.5,457.833 101.5,460.167 101.5,462.5C 108.833,465.833 116.167,469.167 123.5,472.5C 123.216,470.585 123.549,468.919 124.5,467.5C 124.5,475.833 124.5,484.167 124.5,492.5C 124.5,493.5 124.5,494.5 124.5,495.5C 122.801,495.66 121.134,495.494 119.5,495C 113.268,491.87 106.934,489.037 100.5,486.5C 100.5,474.5 100.5,462.5 100.5,450.5 Z"/></g>
<g><path style="opacity:1" fill="#12242f" d="M 124.5,467.5 C 132.64,469.937 140.307,473.437 147.5,478C 149.134,478.494 150.801,478.66 152.5,478.5C 152.5,488.167 152.5,497.833 152.5,507.5C 144.572,504.342 136.572,501.175 128.5,498C 126.532,496.539 125.198,494.705 124.5,492.5C 124.5,484.167 124.5,475.833 124.5,467.5 Z"/></g>
<g><path style="opacity:1" fill="#7b9da3" d="M 155.5,462.5 C 163.308,465.241 170.975,468.241 178.5,471.5C 179.496,487.658 179.83,503.991 179.5,520.5C 170.953,516.314 162.286,512.314 153.5,508.5C 153.5,507.833 153.167,507.5 152.5,507.5C 152.5,497.833 152.5,488.167 152.5,478.5C 152.5,473.833 152.5,469.167 152.5,464.5C 154.027,464.573 155.027,463.906 155.5,462.5 Z"/></g>
<g><path style="opacity:1" fill="#01060d" d="M 261.5,475.5 C 275.288,481.228 288.955,487.228 302.5,493.5C 302.5,511.833 302.5,530.167 302.5,548.5C 302.44,549.043 302.107,549.376 301.5,549.5C 295.649,546.771 289.649,544.604 283.5,543C 276.676,539.647 270.01,536.147 263.5,532.5C 261.572,523.765 260.905,514.765 261.5,505.5C 261.5,495.5 261.5,485.5 261.5,475.5 Z"/></g>
<g><path style="opacity:1" fill="#030b15" d="M 329.5,438.5 C 329.333,449.172 329.5,459.839 330,470.5C 338.435,475.134 347.268,478.801 356.5,481.5C 356.5,503.167 356.5,524.833 356.5,546.5C 347.745,543.36 339.079,540.027 330.5,536.5C 330.831,515.66 330.497,494.993 329.5,474.5C 329.631,473.624 329.298,472.957 328.5,472.5C 321.405,468.619 314.071,465.285 306.5,462.5C 305.501,450.518 305.168,438.518 305.5,426.5C 307.067,425.319 307.901,423.653 308,421.5C 308.5,422 309,422.5 309.5,423C 308.24,424.814 308.24,426.647 309.5,428.5C 311.134,428.968 312.3,429.968 313,431.5C 313.561,430.978 314.228,430.645 315,430.5C 318.057,433.072 321.557,434.405 325.5,434.5C 325.329,437.797 325.995,438.131 327.5,435.5C 328.176,436.602 328.842,437.602 329.5,438.5 Z"/></g>
<g><path style="opacity:1" fill="#8badb3" d="M 233.5,463.5 C 242.608,468.054 251.941,472.054 261.5,475.5C 261.5,485.5 261.5,495.5 261.5,505.5C 251.997,502.163 242.83,498.163 234,493.5C 233.5,483.506 233.334,473.506 233.5,463.5 Z"/></g>
<g><path style="opacity:1" fill="#20353f" d="M 72.5,477.5 C 81.3015,482.066 90.3015,486.399 99.5,490.5C 99.8271,500.348 99.4938,510.014 98.5,519.5C 89.8288,515.498 81.1622,511.498 72.5,507.5C 72.5,497.5 72.5,487.5 72.5,477.5 Z"/></g>
<g><path style="opacity:1" fill="#51747a" d="M 329.5,482.5 C 329.5,499.833 329.5,517.167 329.5,534.5C 327.073,534.477 324.74,533.977 322.5,533C 316.42,530.461 310.42,527.628 304.5,524.5C 303.502,515.859 303.169,507.192 303.5,498.5C 304.873,498.657 306.207,498.49 307.5,498C 306.662,494.916 306.662,492.083 307.5,489.5C 309.724,488.22 311.724,488.553 313.5,490.5C 314.197,493.29 315.197,495.957 316.5,498.5C 317.086,498.291 317.586,497.957 318,497.5C 319.17,492.155 320.337,486.822 321.5,481.5C 320.527,479.36 319.027,477.693 317,476.5C 316.312,475.668 316.479,475.002 317.5,474.5C 320.157,473.534 322.824,473.034 325.5,473C 325.167,473.333 324.833,473.667 324.5,474C 325.849,474.772 326.682,475.939 327,477.5C 327.333,484.5 327.667,491.5 328,498.5C 328.173,492.984 328.673,487.651 329.5,482.5 Z"/></g>
<g><path style="opacity:1" fill="#203841" d="M 211.5,486.5 C 216.185,489.008 221.185,490.841 226.5,492C 228.993,493.419 231.326,494.919 233.5,496.5C 233.062,496.435 232.728,496.601 232.5,497C 233.173,514.833 233.84,532.667 234.5,550.5C 233.183,560.402 233.183,570.402 234.5,580.5C 234.167,580.5 233.833,580.5 233.5,580.5C 226.52,577.677 219.854,574.343 213.5,570.5C 210.541,569.007 207.874,567.007 205.5,564.5C 206.158,538.203 206.825,511.869 207.5,485.5C 208.736,486.246 210.07,486.579 211.5,486.5 Z"/></g>
<g><path style="opacity:1" fill="#60818a" d="M 583.5,481.5 C 583.5,491.833 583.5,502.167 583.5,512.5C 575.213,515.315 567.213,518.648 559.5,522.5C 557.525,512.554 556.858,502.221 557.5,491.5C 566.157,488.173 574.823,484.84 583.5,481.5 Z"/></g>
<g><path style="opacity:1" fill="#142530" d="M 499.5,490.5 C 499.5,498.5 499.5,506.5 499.5,514.5C 499.5,525.5 499.5,536.5 499.5,547.5C 490.649,551.086 481.649,554.419 472.5,557.5C 472.83,540.325 472.497,523.325 471.5,506.5C 471.5,503.833 471.5,501.167 471.5,498.5C 480.185,493.989 489.185,490.322 498.5,487.5C 498.263,488.791 498.596,489.791 499.5,490.5 Z"/></g>
<g><path style="opacity:1" fill="#4a6c73" d="M 100.5,486.5 C 106.934,489.037 113.268,491.87 119.5,495C 121.134,495.494 122.801,495.66 124.5,495.5C 123.522,507.086 123.189,518.753 123.5,530.5C 122.127,530.657 120.793,530.49 119.5,530C 112.928,526.547 106.262,523.38 99.5,520.5C 98.8333,520.5 98.5,520.167 98.5,519.5C 99.4938,510.014 99.8271,500.348 99.5,490.5C 99.8333,489.167 100.167,487.833 100.5,486.5 Z"/></g>
<g><path style="opacity:1" fill="#02070d" d="M 46.5,441.5 C 47.8533,448.305 48.8533,455.305 49.5,462.5C 48.0426,476.527 48.2093,490.527 50,504.5C 50.3333,504.167 50.6667,503.833 51,503.5C 51.6667,518.167 52.3333,518.167 53,503.5C 53.4998,512.494 53.6664,521.494 53.5,530.5C 54.8333,530.5 56.1667,530.5 57.5,530.5C 57.5,535.833 57.5,541.167 57.5,546.5C 59.2624,546.357 60.9291,546.691 62.5,547.5C 63.4742,549.743 63.8076,552.076 63.5,554.5C 67.386,556.175 71.2193,558.175 75,560.5C 77.3458,559.122 79.8458,558.122 82.5,557.5C 96.2758,563.554 109.942,569.887 123.5,576.5C 124.364,577.688 125.364,578.855 126.5,580C 130.737,581.452 134.737,583.452 138.5,586C 143.276,587.305 147.943,588.805 152.5,590.5C 151.273,583.179 151.273,575.846 152.5,568.5C 153.736,567.754 155.07,567.421 156.5,567.5C 162.99,570.246 169.323,573.246 175.5,576.5C 175.5,576.833 175.5,577.167 175.5,577.5C 175.168,586.525 175.502,595.525 176.5,604.5C 184.067,608.451 191.734,612.117 199.5,615.5C 200.694,616.272 201.694,617.272 202.5,618.5C 202.555,630.414 202.555,642.081 202.5,653.5C 150.122,628.31 98.1218,602.644 46.5,576.5C 46.5,531.5 46.5,486.5 46.5,441.5 Z"/></g>
<g><path style="opacity:1" fill="#08141e" d="M 233.5,463.5 C 233.334,473.506 233.5,483.506 234,493.5C 242.83,498.163 251.997,502.163 261.5,505.5C 260.905,514.765 261.572,523.765 263.5,532.5C 257.448,531.046 251.448,529.38 245.5,527.5C 245.5,526.5 245.5,525.5 245.5,524.5C 242.081,522.913 238.415,522.247 234.5,522.5C 234.826,513.651 234.493,504.984 233.5,496.5C 231.326,494.919 228.993,493.419 226.5,492C 221.185,490.841 216.185,489.008 211.5,486.5C 210.365,484.787 208.698,484.12 206.5,484.5C 206.168,474.81 206.502,465.144 207.5,455.5C 214.497,459.803 221.997,463.136 230,465.5C 230.667,462.833 231.333,462.833 232,465.5C 232.278,464.584 232.778,463.918 233.5,463.5 Z"/></g>
<g><path style="opacity:1" fill="#07111b" d="M 124.5,492.5 C 125.198,494.705 126.532,496.539 128.5,498C 136.572,501.175 144.572,504.342 152.5,507.5C 153.167,507.5 153.5,507.833 153.5,508.5C 152.527,508.987 151.527,509.487 150.5,510C 150.496,518.06 150.663,526.227 151,534.5C 151.272,537.254 151.772,539.921 152.5,542.5C 151.179,545.598 150.512,549.098 150.5,553C 150.667,556.5 150.833,560 151,563.5C 152.812,564.977 154.645,566.31 156.5,567.5C 155.07,567.421 153.736,567.754 152.5,568.5C 151.273,575.846 151.273,583.179 152.5,590.5C 147.943,588.805 143.276,587.305 138.5,586C 134.737,583.452 130.737,581.452 126.5,580C 125.364,578.855 124.364,577.688 123.5,576.5C 123.5,567.5 123.5,558.5 123.5,549.5C 123.5,543.167 123.5,536.833 123.5,530.5C 123.189,518.753 123.522,507.086 124.5,495.5C 124.5,494.5 124.5,493.5 124.5,492.5 Z"/></g>
<g><path style="opacity:1" fill="#050d17" d="M 530.5,566.5 C 529.67,556.341 529.17,546.008 529,535.5C 524.158,538.366 518.991,540.199 513.5,541C 509.565,544.775 504.898,546.941 499.5,547.5C 499.5,536.5 499.5,525.5 499.5,514.5C 502.731,513.632 506.065,513.632 509.5,514.5C 509.421,513.07 509.754,511.736 510.5,510.5C 515.8,507.884 521.466,506.218 527.5,505.5C 528.442,505.608 529.275,505.941 530,506.5C 530.5,526.497 530.667,546.497 530.5,566.5 Z"/></g>
<g><path style="opacity:1" fill="#a1c4ca" d="M 72.5,507.5 C 81.1622,511.498 89.8288,515.498 98.5,519.5C 98.5,520.167 98.8333,520.5 99.5,520.5C 100.12,526.926 99.4533,532.926 97.5,538.5C 89.0094,534.422 80.6761,530.088 72.5,525.5C 72.5,519.5 72.5,513.5 72.5,507.5 Z"/></g>
<g><path style="opacity:1" fill="#040b13" d="M 153.5,508.5 C 162.286,512.314 170.953,516.314 179.5,520.5C 180.773,521.077 180.773,521.743 179.5,522.5C 178.833,522.167 178.167,521.833 177.5,521.5C 176.167,529.833 176.167,538.167 177.5,546.5C 178.981,547.48 180.315,548.647 181.5,550C 180.451,550.492 179.451,550.326 178.5,549.5C 177.571,550.689 177.238,552.022 177.5,553.5C 169.075,550.123 160.742,546.456 152.5,542.5C 151.772,539.921 151.272,537.254 151,534.5C 150.663,526.227 150.496,518.06 150.5,510C 151.527,509.487 152.527,508.987 153.5,508.5 Z"/></g>
<g><path style="opacity:1" fill="#a4c9d3" d="M 442.5,510.5 C 443.494,519.652 443.827,528.985 443.5,538.5C 434.393,541.886 425.393,545.553 416.5,549.5C 415.343,540.676 415.176,531.676 416,522.5C 424.692,518.069 433.525,514.069 442.5,510.5 Z"/></g>
<g><path style="opacity:1" fill="#62848c" d="M 99.5,520.5 C 106.262,523.38 112.928,526.547 119.5,530C 120.793,530.49 122.127,530.657 123.5,530.5C 123.5,536.833 123.5,543.167 123.5,549.5C 122.127,549.657 120.793,549.49 119.5,549C 112.187,545.174 104.853,541.674 97.5,538.5C 99.4533,532.926 100.12,526.926 99.5,520.5 Z"/></g>
<g><path style="opacity:1" fill="#8298a8" d="M 442.5,510.5 C 442.5,510.167 442.5,509.833 442.5,509.5C 443.167,509.5 443.833,509.5 444.5,509.5C 444.5,519.167 444.5,528.833 444.5,538.5C 444.167,538.5 443.833,538.5 443.5,538.5C 443.827,528.985 443.494,519.652 442.5,510.5 Z"/></g>
<g><path style="opacity:1" fill="#0f1f29" d="M 178.5,445.5 C 179.06,453.758 179.894,462.091 181,470.5C 183.358,472.024 185.191,474.024 186.5,476.5C 193.383,478.74 200.05,481.407 206.5,484.5C 208.698,484.12 210.365,484.787 211.5,486.5C 210.07,486.579 208.736,486.246 207.5,485.5C 206.825,511.869 206.158,538.203 205.5,564.5C 207.874,567.007 210.541,569.007 213.5,570.5C 209.036,569.099 204.703,567.432 200.5,565.5C 193.02,561.594 185.353,557.928 177.5,554.5C 177.5,554.167 177.5,553.833 177.5,553.5C 177.238,552.022 177.571,550.689 178.5,549.5C 179.451,550.326 180.451,550.492 181.5,550C 180.315,548.647 178.981,547.48 177.5,546.5C 176.167,538.167 176.167,529.833 177.5,521.5C 178.167,521.833 178.833,522.167 179.5,522.5C 180.773,521.743 180.773,521.077 179.5,520.5C 179.83,503.991 179.496,487.658 178.5,471.5C 178.5,462.833 178.5,454.167 178.5,445.5 Z"/></g>
<g><path style="opacity:1" fill="#08151f" d="M 530.5,566.5 C 530.5,574.167 530.5,581.833 530.5,589.5C 530.5,589.833 530.5,590.167 530.5,590.5C 530.167,590.5 529.833,590.5 529.5,590.5C 529.5,582.833 529.5,575.167 529.5,567.5C 519.459,570.732 509.793,574.732 500.5,579.5C 500.167,579.5 499.833,579.5 499.5,579.5C 499.5,568.833 499.5,558.167 499.5,547.5C 504.898,546.941 509.565,544.775 513.5,541C 518.991,540.199 524.158,538.366 529,535.5C 529.17,546.008 529.67,556.341 530.5,566.5 Z"/></g>
<g><path style="opacity:1" fill="#3c5760" d="M 302.5,493.5 C 303.451,494.919 303.784,496.585 303.5,498.5C 303.169,507.192 303.502,515.859 304.5,524.5C 310.42,527.628 316.42,530.461 322.5,533C 324.74,533.977 327.073,534.477 329.5,534.5C 329.826,543.349 329.493,552.016 328.5,560.5C 320.833,557.167 313.167,553.833 305.5,550.5C 304.71,549.599 303.71,548.932 302.5,548.5C 302.5,530.167 302.5,511.833 302.5,493.5 Z"/></g>
<g><path style="opacity:1" fill="#263841" d="M 639.5,524.5 C 640.833,524.5 642.167,524.5 643.5,524.5C 643.666,529.844 643.499,535.177 643,540.5C 633.644,545.12 624.144,549.453 614.5,553.5C 613.337,547.863 613.17,542.196 614,536.5C 622.515,532.323 631.015,528.323 639.5,524.5 Z"/></g>
<g><path style="opacity:1" fill="#142631" d="M 329.5,474.5 C 330.497,494.993 330.831,515.66 330.5,536.5C 339.079,540.027 347.745,543.36 356.5,546.5C 356.5,555.833 356.5,565.167 356.5,574.5C 353.179,574.536 350.012,573.869 347,572.5C 341.14,569.649 335.307,566.983 329.5,564.5C 329.567,563.041 329.234,561.708 328.5,560.5C 329.493,552.016 329.826,543.349 329.5,534.5C 329.5,517.167 329.5,499.833 329.5,482.5C 329.5,479.833 329.5,477.167 329.5,474.5 Z"/></g>
<g><path style="opacity:1" fill="#0d1c27" d="M 233.5,496.5 C 234.493,504.984 234.826,513.651 234.5,522.5C 238.415,522.247 242.081,522.913 245.5,524.5C 245.5,525.5 245.5,526.5 245.5,527.5C 251.448,529.38 257.448,531.046 263.5,532.5C 270.01,536.147 276.676,539.647 283.5,543C 289.649,544.604 295.649,546.771 301.5,549.5C 302.107,549.376 302.44,549.043 302.5,548.5C 303.71,548.932 304.71,549.599 305.5,550.5C 304.504,550.414 303.671,550.748 303,551.5C 302.667,560.5 302.333,569.5 302,578.5C 301.005,579.066 300.172,579.733 299.5,580.5C 278.65,570.576 257.65,560.91 236.5,551.5C 236.158,550.662 235.492,550.328 234.5,550.5C 233.84,532.667 233.173,514.833 232.5,497C 232.728,496.601 233.062,496.435 233.5,496.5 Z"/></g>
<g><path style="opacity:1" fill="#38545f" d="M 443.5,538.5 C 443.833,538.5 444.167,538.5 444.5,538.5C 444.666,548.506 444.5,558.506 444,568.5C 435.109,573.197 425.942,577.197 416.5,580.5C 416.5,570.167 416.5,559.833 416.5,549.5C 425.393,545.553 434.393,541.886 443.5,538.5 Z"/></g>
<g><path style="opacity:1" fill="#87a7ae" d="M 152.5,542.5 C 160.742,546.456 169.075,550.123 177.5,553.5C 177.5,553.833 177.5,554.167 177.5,554.5C 175.537,561.424 174.87,568.757 175.5,576.5C 169.323,573.246 162.99,570.246 156.5,567.5C 154.645,566.31 152.812,564.977 151,563.5C 150.833,560 150.667,556.5 150.5,553C 150.512,549.098 151.179,545.598 152.5,542.5 Z"/></g>
<g><path style="opacity:1" fill="#2c434d" d="M 72.5,525.5 C 80.6761,530.088 89.0094,534.422 97.5,538.5C 104.853,541.674 112.187,545.174 119.5,549C 120.793,549.49 122.127,549.657 123.5,549.5C 123.5,558.5 123.5,567.5 123.5,576.5C 109.942,569.887 96.2758,563.554 82.5,557.5C 80.0151,555.087 77.0151,553.42 73.5,552.5C 72.5018,543.525 72.1685,534.525 72.5,525.5 Z"/></g>
<g><path style="opacity:1" fill="#273e48" d="M 499.5,547.5 C 499.5,558.167 499.5,568.833 499.5,579.5C 490.828,584.003 481.828,587.67 472.5,590.5C 472.5,579.5 472.5,568.5 472.5,557.5C 481.649,554.419 490.649,551.086 499.5,547.5 Z"/></g>
<g><path style="opacity:1" fill="#f7fbfc" d="M 177.5,554.5 C 185.353,557.928 193.02,561.594 200.5,565.5C 200.5,573.167 200.5,580.833 200.5,588.5C 192.288,584.561 183.955,580.894 175.5,577.5C 175.5,577.167 175.5,576.833 175.5,576.5C 174.87,568.757 175.537,561.424 177.5,554.5 Z"/></g>
<g><path style="opacity:1" fill="#8caeb5" d="M 234.5,550.5 C 235.492,550.328 236.158,550.662 236.5,551.5C 235.761,551.369 235.094,551.536 234.5,552C 243.11,557.318 252.277,561.484 262,564.5C 262.5,573.494 262.666,582.494 262.5,591.5C 253.167,587.833 243.833,584.167 234.5,580.5C 233.183,570.402 233.183,560.402 234.5,550.5 Z"/></g>
<g><path style="opacity:1" fill="#1c2e39" d="M 529.5,590.5 C 519.679,594.108 510.012,598.108 500.5,602.5C 500.5,594.833 500.5,587.167 500.5,579.5C 509.793,574.732 519.459,570.732 529.5,567.5C 529.5,575.167 529.5,582.833 529.5,590.5 Z"/></g>
<g><path style="opacity:1" fill="#61828a" d="M 200.5,565.5 C 204.703,567.432 209.036,569.099 213.5,570.5C 219.854,574.343 226.52,577.677 233.5,580.5C 233.5,588.5 233.5,596.5 233.5,604.5C 222.578,599.203 211.578,594.203 200.5,589.5C 200.5,589.167 200.5,588.833 200.5,588.5C 200.5,580.833 200.5,573.167 200.5,565.5 Z"/></g>
<g><path style="opacity:1" fill="#93b7bd" d="M 175.5,577.5 C 183.955,580.894 192.288,584.561 200.5,588.5C 200.5,588.833 200.5,589.167 200.5,589.5C 200.826,598.349 200.493,607.016 199.5,615.5C 191.734,612.117 184.067,608.451 176.5,604.5C 175.502,595.525 175.168,586.525 175.5,577.5 Z"/></g>
<g><path style="opacity:1" fill="#34515a" d="M 200.5,589.5 C 211.578,594.203 222.578,599.203 233.5,604.5C 233.5,614.5 233.5,624.5 233.5,634.5C 223.129,629.16 212.795,623.827 202.5,618.5C 201.694,617.272 200.694,616.272 199.5,615.5C 200.493,607.016 200.826,598.349 200.5,589.5 Z"/></g>
<g><path style="opacity:1" fill="#3a5860" d="M 233.5,580.5 C 233.833,580.5 234.167,580.5 234.5,580.5C 243.833,584.167 253.167,587.833 262.5,591.5C 262.5,591.833 262.5,592.167 262.5,592.5C 261.761,592.369 261.094,592.536 260.5,593C 261.815,601.108 261.815,609.275 260.5,617.5C 251.6,612.883 242.6,608.549 233.5,604.5C 233.5,596.5 233.5,588.5 233.5,580.5 Z"/></g>
<g><path style="opacity:1" fill="#bde4ec" d="M 236.5,551.5 C 257.65,560.91 278.65,570.576 299.5,580.5C 303.043,582.438 306.71,584.105 310.5,585.5C 309.432,586.434 308.099,586.768 306.5,586.5C 306.5,595.833 306.5,605.167 306.5,614.5C 306.826,623.017 306.493,631.35 305.5,639.5C 291.159,632.913 276.993,625.913 263,618.5C 262.5,609.84 262.334,601.173 262.5,592.5C 262.5,592.167 262.5,591.833 262.5,591.5C 262.666,582.494 262.5,573.494 262,564.5C 252.277,561.484 243.11,557.318 234.5,552C 235.094,551.536 235.761,551.369 236.5,551.5 Z"/></g>
<g><path style="opacity:1" fill="#3c575e" d="M 499.5,579.5 C 499.833,579.5 500.167,579.5 500.5,579.5C 500.5,587.167 500.5,594.833 500.5,602.5C 491.326,607.105 481.993,611.105 472.5,614.5C 472.5,606.5 472.5,598.5 472.5,590.5C 481.828,587.67 490.828,584.003 499.5,579.5 Z"/></g>
<g><path style="opacity:1" fill="#2d4750" d="M 310.5,585.5 C 316.71,587.603 322.71,590.27 328.5,593.5C 329.499,603.812 329.832,614.145 329.5,624.5C 322.156,620.387 314.49,617.054 306.5,614.5C 306.5,605.167 306.5,595.833 306.5,586.5C 308.099,586.768 309.432,586.434 310.5,585.5 Z"/></g>
<g><path style="opacity:1" fill="#020810" d="M 471.5,506.5 C 472.497,523.325 472.83,540.325 472.5,557.5C 472.5,568.5 472.5,579.5 472.5,590.5C 472.5,598.5 472.5,606.5 472.5,614.5C 481.993,611.105 491.326,607.105 500.5,602.5C 510.012,598.108 519.679,594.108 529.5,590.5C 529.833,590.5 530.167,590.5 530.5,590.5C 529.694,599.423 529.194,608.423 529,617.5C 528.5,618.5 528,619.5 527.5,620.5C 524.822,621.555 522.322,622.888 520,624.5C 519.667,624.167 519.333,623.833 519,623.5C 516.46,624.543 514.126,625.209 512,625.5C 511.667,624.833 511.333,624.167 511,623.5C 510.562,627.567 508.395,630.067 504.5,631C 495.416,635.028 486.249,638.861 477,642.5C 475.893,642.415 474.893,642.081 474,641.5C 473.667,633.167 473.333,624.833 473,616.5C 471.964,607.233 470.797,597.899 469.5,588.5C 470.58,561.556 471.247,534.223 471.5,506.5 Z"/></g>
<g><path style="opacity:1" fill="#263c47" d="M 441.5,607.5 C 442.82,610.428 443.486,613.761 443.5,617.5C 443.333,620.833 443.167,624.167 443,627.5C 434.369,631.898 425.536,635.898 416.5,639.5C 416.867,632.585 416.201,625.919 414.5,619.5C 423.608,615.78 432.608,611.78 441.5,607.5 Z"/></g>
<g><path style="opacity:1" fill="#1a3039" d="M 262.5,592.5 C 262.334,601.173 262.5,609.84 263,618.5C 276.993,625.913 291.159,632.913 305.5,639.5C 305.5,649.5 305.5,659.5 305.5,669.5C 291.448,662.702 277.115,656.369 262.5,650.5C 260.684,648.863 258.684,647.363 256.5,646C 249.789,643.765 243.456,640.765 237.5,637C 236.207,636.51 234.873,636.343 233.5,636.5C 233.5,635.833 233.5,635.167 233.5,634.5C 233.5,624.5 233.5,614.5 233.5,604.5C 242.6,608.549 251.6,612.883 260.5,617.5C 261.815,609.275 261.815,601.108 260.5,593C 261.094,592.536 261.761,592.369 262.5,592.5 Z"/></g>
<g><path style="opacity:1" fill="#92b7bd" d="M 306.5,614.5 C 314.49,617.054 322.156,620.387 329.5,624.5C 329.5,643.167 329.5,661.833 329.5,680.5C 329.167,680.5 328.833,680.5 328.5,680.5C 320.647,677.072 312.98,673.406 305.5,669.5C 305.5,659.5 305.5,649.5 305.5,639.5C 306.493,631.35 306.826,623.017 306.5,614.5 Z"/></g>
<g><path style="opacity:1" fill="#203740" d="M 202.5,618.5 C 212.795,623.827 223.129,629.16 233.5,634.5C 233.5,635.167 233.5,635.833 233.5,636.5C 233.809,647.248 233.476,657.915 232.5,668.5C 222.182,664.008 212.182,659.008 202.5,653.5C 202.555,642.081 202.555,630.414 202.5,618.5 Z"/></g>
<g><path style="opacity:1" fill="#02050d" d="M 415.5,671.5 C 415.5,661.833 415.5,652.167 415.5,642.5C 415.557,641.391 415.89,640.391 416.5,639.5C 425.536,635.898 434.369,631.898 443,627.5C 443.167,624.167 443.333,620.833 443.5,617.5C 443.486,613.761 442.82,610.428 441.5,607.5C 442.077,605.348 443.244,605.015 445,606.5C 445.404,615.288 445.238,623.954 444.5,632.5C 440.551,632.693 440.551,633.193 444.5,634C 444.043,634.414 443.709,634.914 443.5,635.5C 444.447,637.059 445.113,638.726 445.5,640.5C 444.922,646.169 444.255,651.836 443.5,657.5C 439.181,660.601 434.515,662.935 429.5,664.5C 429.369,668.652 427.869,669.318 425,666.5C 424.667,667.167 424.333,667.833 424,668.5C 423.333,667.167 422.667,667.167 422,668.5C 420.913,666.068 420.413,666.402 420.5,669.5C 418.446,669.365 416.779,670.032 415.5,671.5 Z"/></g>
<g><path style="opacity:1" fill="#aad0da" d="M 414.5,619.5 C 416.201,625.919 416.867,632.585 416.5,639.5C 415.89,640.391 415.557,641.391 415.5,642.5C 406.376,645.897 397.376,649.563 388.5,653.5C 388.5,646.167 388.5,638.833 388.5,631.5C 397.167,627.5 405.833,623.5 414.5,619.5 Z"/></g>
<g><path style="opacity:1" fill="#0a1821" d="M 233.5,636.5 C 234.873,636.343 236.207,636.51 237.5,637C 243.456,640.765 249.789,643.765 256.5,646C 258.684,647.363 260.684,648.863 262.5,650.5C 261.757,660.982 261.09,671.648 260.5,682.5C 250.897,678.195 241.564,673.528 232.5,668.5C 233.476,657.915 233.809,647.248 233.5,636.5 Z"/></g>
<g><path style="opacity:1" fill="#2a444e" d="M 355.5,638.5 C 355.666,646.84 355.5,655.173 355,663.5C 352.822,663.064 350.322,662.564 347.5,662C 342.425,657.602 336.758,654.436 330.5,652.5C 330.5,644.167 330.5,635.833 330.5,627.5C 338.914,630.871 347.247,634.538 355.5,638.5 Z"/></g>
<g><path style="opacity:1" fill="#5b757e" d="M 329.5,624.5 C 338.974,628.403 347.974,633.069 356.5,638.5C 356.167,638.5 355.833,638.5 355.5,638.5C 347.247,634.538 338.914,630.871 330.5,627.5C 330.5,635.833 330.5,644.167 330.5,652.5C 330.827,662.015 330.494,671.348 329.5,680.5C 329.5,661.833 329.5,643.167 329.5,624.5 Z"/></g>
<g><path style="opacity:1" fill="#1e343f" d="M 355.5,638.5 C 355.833,638.5 356.167,638.5 356.5,638.5C 356.5,656.5 356.5,674.5 356.5,692.5C 346.81,689.057 337.477,685.057 328.5,680.5C 328.833,680.5 329.167,680.5 329.5,680.5C 330.494,671.348 330.827,662.015 330.5,652.5C 336.758,654.436 342.425,657.602 347.5,662C 350.322,662.564 352.822,663.064 355,663.5C 355.5,655.173 355.666,646.84 355.5,638.5 Z"/></g>
<g><path style="opacity:1" fill="#3b5962" d="M 388.5,631.5 C 388.5,638.833 388.5,646.167 388.5,653.5C 397.376,649.563 406.376,645.897 415.5,642.5C 415.5,652.167 415.5,661.833 415.5,671.5C 406.694,674.771 398.028,678.437 389.5,682.5C 387.944,665.352 387.611,648.352 388.5,631.5 Z"/></g>
<g><path style="opacity:1" fill="#03080e" d="M 356.5,546.5 C 358.364,564.64 358.864,582.973 358,601.5C 357.362,602.609 356.862,603.775 356.5,605C 356.629,613.238 356.629,621.738 356.5,630.5C 357.154,632.115 357.654,633.782 358,635.5C 358.43,664.952 357.597,694.118 355.5,723C 356.167,723.333 356.833,723.667 357.5,724C 355.959,725.371 354.625,726.871 353.5,728.5C 321.971,713.901 290.971,698.567 260.5,682.5C 261.09,671.648 261.757,660.982 262.5,650.5C 277.115,656.369 291.448,662.702 305.5,669.5C 312.98,673.406 320.647,677.072 328.5,680.5C 337.477,685.057 346.81,689.057 356.5,692.5C 356.5,674.5 356.5,656.5 356.5,638.5C 347.974,633.069 338.974,628.403 329.5,624.5C 329.832,614.145 329.499,603.812 328.5,593.5C 322.71,590.27 316.71,587.603 310.5,585.5C 306.71,584.105 303.043,582.438 299.5,580.5C 300.172,579.733 301.005,579.066 302,578.5C 302.333,569.5 302.667,560.5 303,551.5C 303.671,550.748 304.504,550.414 305.5,550.5C 313.167,553.833 320.833,557.167 328.5,560.5C 329.234,561.708 329.567,563.041 329.5,564.5C 329.334,573.506 329.5,582.506 330,591.5C 338.496,596.17 347.329,599.837 356.5,602.5C 356.5,593.167 356.5,583.833 356.5,574.5C 356.5,565.167 356.5,555.833 356.5,546.5 Z"/></g>
<g><path style="opacity:1" fill="#223842" d="M 329.5,564.5 C 335.307,566.983 341.14,569.649 347,572.5C 350.012,573.869 353.179,574.536 356.5,574.5C 356.5,583.833 356.5,593.167 356.5,602.5C 347.329,599.837 338.496,596.17 330,591.5C 329.5,582.506 329.334,573.506 329.5,564.5 Z"/></g>
</svg>
